<svg version="1.1" id="Layer_1" xmlns="http://www.w3.org/2000/svg" xmlns:xlink="http://www.w3.org/1999/xlink" x="0px" y="0px"
	 viewBox="0 0 775 517" style="enable-background:new 0 0 775 517;" xml:space="preserve">
<style type="text/css">
	.st0{fill:#FF9999;}
	.st1{fill:#9FDDFF;}
	.st2{fill:#9F8599;}
</style>
<g>
	<circle class="st0" cx="258" cy="259" r="258"/>
</g>
<g>
	<circle class="st1" cx="517" cy="258" r="258"/>
</g>
<path class="st2" d="M259,258c0,95.64,52.04,179.12,129.35,223.68C464.71,436.88,516,353.94,516,259
	c0-95.64-52.04-179.12-129.35-223.68C310.29,80.12,259,163.06,259,258z"/>
<g>
	<path d="M156.37,81.24c-1.53,1.72-3.04,2.62-4.99,3.79l-6.95,4.17l-13.08-21.79l7.81-4.69c0.99-0.59,2.23-1.25,3.3-1.64
		c1.21-0.43,3.98-1.13,7.21,0.12c1.72,0.69,4.48,2.35,6.79,6.21C159.06,71.73,160.01,77.08,156.37,81.24z M146.46,65.27
		c-0.56-0.09-1.63-0.2-2.99,0.2c-1.22,0.35-1.75,0.72-3.67,1.86l-2.16,1.3l8.67,14.45l1.08-0.65c2.19-1.32,3.47-2.12,4.36-2.87
		c0.5-0.43,1.9-1.6,2.19-3.62c0.32-2.54-1.65-5.69-1.82-5.96C150.18,66.73,148.16,65.6,146.46,65.27z"/>
	<path d="M178.68,68.5c-0.52,1.27-1.98,3.88-5.34,5.43c-1.05,0.48-3.69,1.54-6.86,0.5c-2.68-0.91-4.4-2.85-5.58-5.4
		c-0.63-1.37-1.04-2.77-1.09-4.26c-0.03-1.97,0.61-5.91,5.35-8.09c3.66-1.69,6.46-0.68,7.89,0.17c1.28,0.8,2.95,2.45,4.51,5.57
		l-12.1,5.57c0.29,0.46,0.92,1.4,2.19,2c0.87,0.43,2.26,0.86,4.29-0.07c2.03-0.93,2.77-2.42,3.04-3.22
		c0.07-0.19,0.15-0.54,0.21-1.01l4.22,0.39C179.3,66.59,179.13,67.42,178.68,68.5z M170.96,60.36c-0.72-0.62-2.17-1.54-4.3-0.56
		c-0.85,0.39-1.23,0.77-1.5,1.05c-1.48,1.6-1.07,3.62-0.91,4.22l7.65-3.52C171.91,61.55,171.45,60.81,170.96,60.36z"/>
	<path d="M196.38,61c-0.27,1.85-1.69,4.53-5.83,5.98c-3.19,1.12-5.85,0.84-7.13,0.56c-0.71-0.17-1.41-0.42-2.1-0.75l2.19-3.56
		c0.2,0.12,0.51,0.36,1.08,0.57c1.9,0.74,4.1,0.05,4.58-0.12c1.02-0.36,2.12-1.01,2.53-2.03c0.18-0.37,0.21-0.8,0.1-1.14
		c-0.05-0.14-0.18-0.4-0.52-0.62c-0.66-0.46-1.21-0.3-2.56-0.13c-1.2,0.16-2.37,0.42-3.56,0.53c-0.82,0.06-5.09,0.49-6.38-3.17
		c-0.45-1.29-0.25-2.43-0.14-2.89c0.38-1.62,1.83-3.92,5.49-5.21c1.32-0.47,4.83-1.47,8.41,0.59l-1.94,3.7
		c-0.59-0.59-1.18-0.85-1.53-0.99c-1.38-0.55-2.6-0.46-4,0.03c-0.17,0.06-1.32,0.47-1.89,1.24c-0.47,0.62-0.41,1.21-0.31,1.52
		c0.24,0.57,0.79,0.83,0.91,0.86c0.56,0.18,1.78,0.06,3.22-0.18c0.98-0.15,1.94-0.34,2.93-0.46s2.12-0.17,3.05,0.11
		c0.77,0.23,2.44,0.97,3.17,3.05C196.44,59.3,196.51,60.16,196.38,61z"/>
	<path d="M195.49,42.99l-1.17-4.2l4.13-1.15l1.17,4.2L195.49,42.99z M201.08,63.04l-4.83-17.34l4.13-1.15l4.83,17.34L201.08,63.04z"
		/>
	<path d="M224.88,60.87c-0.79,1.7-2.84,3.37-6.83,4.17c-3.95,0.8-6.11,0.1-7.52-1.23c-0.55-0.55-1.02-1.23-1.68-2.67l4.66-0.91
		c0.18,0.33,0.29,0.53,0.6,0.8c1.19,1.15,3.12,0.73,3.44,0.66c2.12-0.43,3.05-1.46,3.33-2.4c0.31-1.02,0.09-1.93-0.31-3.9
		c-1.62,2.16-4.07,2.77-4.95,2.95c-1.06,0.21-2.26,0.27-3.34,0.01c-2.03-0.43-5-2.04-5.98-6.87c-0.11-0.56-0.45-2.22-0.16-3.9
		c0.58-3.31,3.05-5.8,6.37-6.47c0.6-0.12,2.31-0.39,3.97,0.37c0.73,0.33,1.31,0.84,1.49,1.02l-0.38-1.87l4.2-0.85l2.94,14.5
		C225.13,56.34,225.85,58.8,224.88,60.87z M218.68,46.96c-0.48-0.9-1.85-2.78-4.71-2.21c-0.6,0.12-1.99,0.51-2.87,1.98
		c-0.96,1.59-0.6,3.21-0.49,3.77s0.42,2.08,1.81,3.12c0.21,0.14,0.68,0.45,1.3,0.62c0.39,0.1,1.15,0.24,2.21,0.03
		c1.69-0.34,2.51-1.21,2.9-1.83c0.96-1.44,0.64-2.99,0.53-3.56C219.16,47.89,218.9,47.32,218.68,46.96z"/>
	<path d="M240.68,55.69l-0.93-9.13c-0.14-1.4-0.21-2.08-0.46-2.74c-0.71-2.03-2.35-2.15-3.21-2.06c-0.47,0.05-1.35,0.21-2.17,1.05
		c-1.18,1.21-1.42,2.75-1.11,5.83l0.79,7.77l-4.33,0.44l-1.82-17.91l4.33-0.44l0.22,2.11c0.06-0.11,0.37-0.62,0.69-1.01
		c1.52-1.75,3.94-2.14,4.55-2.2c2.65-0.27,4.33,0.93,4.99,1.7c1.31,1.53,1.44,3.8,1.62,5.62l1.07,10.53L240.68,55.69z"/>
	<path d="M264.17,52.72c-0.99,0.95-3.38,2.75-7.08,2.81c-1.15,0.02-4-0.08-6.48-2.31c-2.08-1.91-2.88-4.38-2.92-7.19
		c-0.02-1.51,0.17-2.96,0.72-4.33c0.76-1.81,2.94-5.16,8.16-5.24c4.03-0.06,6.19,1.99,7.15,3.34c0.85,1.25,1.71,3.43,1.88,6.92
		l-13.32,0.21c0.08,0.54,0.28,1.65,1.2,2.72c0.62,0.75,1.72,1.7,3.95,1.66c2.23-0.04,3.51-1.1,4.08-1.72
		c0.14-0.15,0.35-0.44,0.6-0.84l3.71,2.06C265.52,51.23,265.03,51.92,264.17,52.72z M260.4,42.16c-0.41-0.86-1.37-2.28-3.71-2.24
		c-0.94,0.02-1.44,0.2-1.79,0.35c-2,0.86-2.44,2.88-2.54,3.5l8.42-0.14C260.79,43.63,260.67,42.77,260.4,42.16z"/>
	<path d="M273.85,44.92c-0.39,0.98-0.46,1.88-0.53,2.92l-0.54,7.68l-4.17-0.3l1.27-17.95l4.17,0.3l-0.18,2.55
		c0.33-0.52,0.72-1.03,1.18-1.4c1.54-1.3,3.87-1.2,4.38-1.17l0.36,0.03L279.47,42C278.57,41.94,275.12,41.69,273.85,44.92z"/>
</g>
<g>
	<path d="M532.42,54.85c-2.23,0.56-3.99,0.47-6.26,0.35l-8.09-0.44l1.38-25.38l9.1,0.49c1.15,0.06,2.55,0.21,3.65,0.49
		c1.24,0.32,3.93,1.29,5.9,4.14c1.03,1.53,2.39,4.46,2.15,8.95C539.98,48.48,537.76,53.44,532.42,54.85z M533.16,36.06
		c-0.41-0.38-1.24-1.08-2.59-1.51c-1.2-0.39-1.85-0.39-4.08-0.51l-2.52-0.14l-0.91,16.82l1.26,0.07c2.55,0.14,4.06,0.18,5.22,0.07
		c0.65-0.07,2.47-0.26,3.85-1.77c1.69-1.93,1.82-5.63,1.84-5.96C535.43,39.36,534.39,37.29,533.16,36.06z"/>
	<path d="M558.04,56.78c-1.15,0.76-3.81,2.11-7.47,1.51c-1.14-0.19-3.92-0.79-5.97-3.42c-1.71-2.25-2.05-4.82-1.6-7.59
		c0.25-1.49,0.69-2.88,1.48-4.13c1.07-1.65,3.81-4.55,8.96-3.71c3.98,0.65,5.74,3.06,6.44,4.56c0.61,1.38,1.07,3.68,0.62,7.14
		l-13.14-2.16c-0.02,0.54-0.02,1.68,0.69,2.89c0.48,0.85,1.39,1.98,3.59,2.34c2.2,0.36,3.65-0.46,4.32-0.97
		c0.17-0.12,0.42-0.37,0.74-0.72l3.28,2.69C559.62,55.55,559.02,56.14,558.04,56.78z M556.2,45.72c-0.25-0.92-0.94-2.49-3.25-2.87
		c-0.92-0.15-1.45-0.06-1.83,0.03c-2.12,0.49-2.91,2.4-3.12,2.99l8.31,1.36C556.32,47.24,556.35,46.37,556.2,45.72z"/>
	<path d="M570.31,62.02l-4.46-1.15l-1.16-18.89l4.32,1.11l0.53,12.93l6.65-11.08l4.36,1.12L570.31,62.02z"/>
	<path d="M593.24,67.25c-1.26,0.54-4.13,1.4-7.62,0.15c-1.08-0.39-3.72-1.48-5.26-4.44c-1.28-2.52-1.16-5.12-0.22-7.76
		c0.51-1.42,1.2-2.71,2.2-3.8c1.35-1.43,4.56-3.8,9.48-2.05c3.8,1.35,5.1,4.03,5.52,5.64c0.36,1.47,0.4,3.81-0.67,7.14l-12.55-4.47
		c-0.11,0.53-0.32,1.65,0.17,2.96c0.32,0.92,1.01,2.2,3.12,2.95c2.1,0.75,3.68,0.2,4.42-0.18c0.18-0.09,0.48-0.29,0.85-0.57
		l2.75,3.23C595.02,66.32,594.32,66.79,593.24,67.25z M593.41,56.03c-0.08-0.95-0.48-2.62-2.69-3.4c-0.88-0.31-1.42-0.31-1.8-0.3
		c-2.18,0.1-3.29,1.85-3.6,2.39l7.94,2.83C593.25,57.55,593.44,56.7,593.41,56.03z"/>
	<path d="M596.67,71.13l10.18-23.29l4.02,1.76L600.7,72.89L596.67,71.13z"/>
	<path d="M621.67,77.81c-1.49,1.29-5.3,3.52-10.05,1.02c-0.67-0.35-2.02-1.1-3.22-2.62c-1.27-1.6-3.13-5.43-0.6-10.24
		c0.9-1.72,2.05-2.75,2.58-3.2c1.51-1.24,5.24-3.39,9.99-0.9c0.61,0.32,1.97,1.12,3.12,2.57c1.34,1.64,3.18,5.33,0.7,10.13
		C623.88,75.14,623.06,76.63,621.67,77.81z M618.49,65.28c-0.35-0.18-1.34-0.62-2.49-0.53c-1.11,0.11-2.92,0.83-4.17,3.22
		c-0.4,0.77-0.69,1.47-0.82,2.33c-0.15,0.9-0.17,3.65,2.44,5.02c2.9,1.52,5.55-0.34,6.77-2.91
		C621.47,69.89,621.3,66.75,618.49,65.28z"/>
	<path d="M637,90.43c-3.42,1.32-6.03-0.01-7.17-0.77c-0.9-0.6-2.35-1.81-2.98-4.38l-4.05,6.13l-3.61-2.38l13.15-19.92l3.61,2.38
		l-0.89,1.35c1.02-0.23,3.02-0.59,5.31,0.92c0.96,0.63,2.97,2.22,3.36,5.37c0.17,1.45,0.11,4.21-1.88,7.22
		C641.32,87.15,639.78,89.37,637,90.43z M639.28,81.62c0.46-1.81-0.17-3.73-1.76-4.79c-0.93-0.61-1.8-0.67-2.22-0.69
		c-1.14,0.02-2.77,0.54-4.3,2.73c-0.4,0.6-0.73,1.24-0.96,1.91c-0.66,1.98-0.2,3.97,1.6,5.16c0.63,0.42,1.44,0.69,2.22,0.69
		c1.25,0,2.91-0.62,4.42-2.91C638.46,83.45,639.02,82.61,639.28,81.62z"/>
	<path d="M652.57,103.51c-1.37,0.09-4.36-0.06-7.24-2.39c-0.89-0.73-3.01-2.63-3.48-5.93c-0.37-2.8,0.61-5.21,2.38-7.39
		c0.95-1.17,2.03-2.16,3.34-2.86c1.75-0.9,5.57-2.06,9.62,1.22c3.13,2.54,3.46,5.5,3.33,7.15c-0.15,1.5-0.89,3.73-3.01,6.51
		l-10.34-8.39c-0.28,0.46-0.85,1.44-0.83,2.85c0,0.97,0.22,2.41,1.96,3.81s3.4,1.41,4.23,1.3c0.2-0.02,0.55-0.11,1-0.26l1.51,3.96
		C654.56,103.22,653.74,103.44,652.57,103.51z M656.47,92.99c0.24-0.92,0.42-2.63-1.4-4.1c-0.73-0.59-1.23-0.77-1.6-0.88
		c-2.09-0.63-3.72,0.64-4.19,1.05l6.54,5.31C655.82,94.37,656.28,93.63,656.47,92.99z"/>
	<path d="M665.1,103.61c-0.93,0.51-1.55,1.16-2.27,1.92l-5.31,5.59l-3.03-2.88l12.4-13.05l3.03,2.88l-1.76,1.85
		c0.58-0.19,1.21-0.34,1.8-0.33c2.01-0.03,3.76,1.53,4.12,1.88l0.26,0.25l-3.05,3.21C670.64,104.31,668.13,101.93,665.1,103.61z"/>
</g>
<g>
	<path d="M367.34,265.21c-4.76,4.03-11.14,4.09-12.94,4.09c-2.35,0-9.91-0.11-15.4-5.88c-0.67-0.73-1.4-1.68-1.9-2.58l6.22-4.31
		c1.74,2.58,4.98,5.94,12.26,5.94c0.34,0,1.74,0,2.91-0.28c0.84-0.17,4.7-1.23,4.7-4.93c0-0.39-0.06-1.46-0.73-2.35
		c-1.34-1.79-4.93-2.3-6.89-2.74l-4.7-1.06c-2.02-0.45-4.2-0.9-5.99-1.85c-1.85-0.95-5.66-3.47-5.66-9.18c0-0.9,0.11-3.47,1.51-5.82
		c1.79-3.02,6.1-6.5,14.11-6.5c3.53,0,10.47,0.56,15.96,8.01l-6.1,4.54c-1.23-1.96-4.03-5.88-10.25-5.88c-0.39,0-5.38-0.06-7,3.02
		c-0.34,0.62-0.45,1.18-0.45,1.79c0,0.67,0.17,1.23,0.5,1.79c0.95,1.62,3.14,2.13,6.78,2.91l4.09,0.9c3.75,0.84,7.9,1.96,10.53,5.04
		c1.12,1.23,2.3,3.02,2.3,6.66C371.2,260.11,370.08,262.85,367.34,265.21z"/>
	<path d="M395.23,268.29h-9.97l-11.65-39.54h7.78l8.85,31.19l8.62-31.19h7.62L395.23,268.29z"/>
	<path d="M439.03,268.29l-0.06-3.36c-3.19,2.97-6.44,4.37-10.86,4.37c-2.41,0-7.9-0.34-12.66-4.98c-2.3-2.3-5.88-7.22-5.88-15.4
		c0-5.04,1.51-10.3,4.65-14.28c1.79-2.24,6.5-6.89,14.5-6.89c1.12,0,3.64,0.11,6.5,1.18c2.58,1.01,7.56,3.64,10.14,10.47l-7.06,2.8
		c-0.67-1.9-2.74-7.78-9.63-7.78c-1.34,0-4.48,0.22-7.11,2.86c-1.9,1.96-3.92,5.32-3.92,11.42c0,1.62,0,7.56,4.54,11.37
		c1.96,1.62,4.14,2.24,6.66,2.24c3.92,0,7.39-1.9,8.9-5.6c0.34-0.78,0.62-1.74,0.84-3.53h-9.86v-6.5h16.63v21.62H439.03z"/>
</g>
</svg>
