<svg
   version="1.1"
   id="Layer_1"
   x="0px"
   y="0px"
   viewBox="0 0 775 517"
   style="enable-background:new 0 0 775 517;"
   xml:space="preserve"
   sodipodi:docname="svg-is-hard.svg"
   inkscape:version="1.1 (c68e22c387, 2021-05-23)"
   xmlns:inkscape="http://www.inkscape.org/namespaces/inkscape"
   xmlns:sodipodi="http://sodipodi.sourceforge.net/DTD/sodipodi-0.dtd"
   xmlns="http://www.w3.org/2000/svg"
   xmlns:svg="http://www.w3.org/2000/svg"><defs
   id="defs61783" /><sodipodi:namedview
   id="namedview61781"
   pagecolor="#ffffff"
   bordercolor="#666666"
   borderopacity="1.0"
   inkscape:pageshadow="2"
   inkscape:pageopacity="0.0"
   inkscape:pagecheckerboard="0"
   showgrid="false"
   inkscape:zoom="1.3651613"
   inkscape:cx="338.42155"
   inkscape:cy="258.21125"
   inkscape:window-width="1920"
   inkscape:window-height="1017"
   inkscape:window-x="-8"
   inkscape:window-y="-8"
   inkscape:window-maximized="1"
   inkscape:current-layer="text63869" />
<style
   type="text/css"
   id="style61722">
	.st0{fill:#FF9999;}
	.st1{fill:#9FDDFF;}
	.st2{fill:#9F8599;}
</style>
<g
   id="g61726">
	<circle
   class="st0"
   cx="258"
   cy="259"
   r="258"
   id="circle61724" />
</g>
<g
   id="g61730">
	<circle
   class="st1"
   cx="517"
   cy="258"
   r="258"
   id="circle61728" />
</g>
<path
   class="st2"
   d="M259,258c0,95.64,52.04,179.12,129.35,223.68C464.71,436.88,516,353.94,516,259  c0-95.64-52.04-179.12-129.35-223.68C310.29,80.12,259,163.06,259,258z"
   id="path61732" />
<g
   id="g61750">
	<path
   d="M156.37,81.24c-1.53,1.72-3.04,2.62-4.99,3.79l-6.95,4.17l-13.08-21.79l7.81-4.69c0.99-0.59,2.23-1.25,3.3-1.64   c1.21-0.43,3.98-1.13,7.21,0.12c1.72,0.69,4.48,2.35,6.79,6.21C159.06,71.73,160.01,77.08,156.37,81.24z M146.46,65.27   c-0.56-0.09-1.63-0.2-2.99,0.2c-1.22,0.35-1.75,0.72-3.67,1.86l-2.16,1.3l8.67,14.45l1.08-0.65c2.19-1.32,3.47-2.12,4.36-2.87   c0.5-0.43,1.9-1.6,2.19-3.62c0.32-2.54-1.65-5.69-1.82-5.96C150.18,66.73,148.16,65.6,146.46,65.27z"
   id="path61734" />
	<path
   d="M178.68,68.5c-0.52,1.27-1.98,3.88-5.34,5.43c-1.05,0.48-3.69,1.54-6.86,0.5c-2.68-0.91-4.4-2.85-5.58-5.4   c-0.63-1.37-1.04-2.77-1.09-4.26c-0.03-1.97,0.61-5.91,5.35-8.09c3.66-1.69,6.46-0.68,7.89,0.17c1.28,0.8,2.95,2.45,4.51,5.57   l-12.1,5.57c0.29,0.46,0.92,1.4,2.19,2c0.87,0.43,2.26,0.86,4.29-0.07c2.03-0.93,2.77-2.42,3.04-3.22   c0.07-0.19,0.15-0.54,0.21-1.01l4.22,0.39C179.3,66.59,179.13,67.42,178.68,68.5z M170.96,60.36c-0.72-0.62-2.17-1.54-4.3-0.56   c-0.85,0.39-1.23,0.77-1.5,1.05c-1.48,1.6-1.07,3.62-0.91,4.22l7.65-3.52C171.91,61.55,171.45,60.81,170.96,60.36z"
   id="path61736" />
	<path
   d="M196.38,61c-0.27,1.85-1.69,4.53-5.83,5.98c-3.19,1.12-5.85,0.84-7.13,0.56c-0.71-0.17-1.41-0.42-2.1-0.75l2.19-3.56   c0.2,0.12,0.51,0.36,1.08,0.57c1.9,0.74,4.1,0.05,4.58-0.12c1.02-0.36,2.12-1.01,2.53-2.03c0.18-0.37,0.21-0.8,0.1-1.14   c-0.05-0.14-0.18-0.4-0.52-0.62c-0.66-0.46-1.21-0.3-2.56-0.13c-1.2,0.16-2.37,0.42-3.56,0.53c-0.82,0.06-5.09,0.49-6.38-3.17   c-0.45-1.29-0.25-2.43-0.14-2.89c0.38-1.62,1.83-3.92,5.49-5.21c1.32-0.47,4.83-1.47,8.41,0.59l-1.94,3.7   c-0.59-0.59-1.18-0.85-1.53-0.99c-1.38-0.55-2.6-0.46-4,0.03c-0.17,0.06-1.32,0.47-1.89,1.24c-0.47,0.62-0.41,1.21-0.31,1.52   c0.24,0.57,0.79,0.83,0.91,0.86c0.56,0.18,1.78,0.06,3.22-0.18c0.98-0.15,1.94-0.34,2.93-0.46s2.12-0.17,3.05,0.11   c0.77,0.23,2.44,0.97,3.17,3.05C196.44,59.3,196.51,60.16,196.38,61z"
   id="path61738" />
	<path
   d="M195.49,42.99l-1.17-4.2l4.13-1.15l1.17,4.2L195.49,42.99z M201.08,63.04l-4.83-17.34l4.13-1.15l4.83,17.34L201.08,63.04z"
   id="path61740" />
	<path
   d="M224.88,60.87c-0.79,1.7-2.84,3.37-6.83,4.17c-3.95,0.8-6.11,0.1-7.52-1.23c-0.55-0.55-1.02-1.23-1.68-2.67l4.66-0.91   c0.18,0.33,0.29,0.53,0.6,0.8c1.19,1.15,3.12,0.73,3.44,0.66c2.12-0.43,3.05-1.46,3.33-2.4c0.31-1.02,0.09-1.93-0.31-3.9   c-1.62,2.16-4.07,2.77-4.95,2.95c-1.06,0.21-2.26,0.27-3.34,0.01c-2.03-0.43-5-2.04-5.98-6.87c-0.11-0.56-0.45-2.22-0.16-3.9   c0.58-3.31,3.05-5.8,6.37-6.47c0.6-0.12,2.31-0.39,3.97,0.37c0.73,0.33,1.31,0.84,1.49,1.02l-0.38-1.87l4.2-0.85l2.94,14.5   C225.13,56.34,225.85,58.8,224.88,60.87z M218.68,46.96c-0.48-0.9-1.85-2.78-4.71-2.21c-0.6,0.12-1.99,0.51-2.87,1.98   c-0.96,1.59-0.6,3.21-0.49,3.77s0.42,2.08,1.81,3.12c0.21,0.14,0.68,0.45,1.3,0.62c0.39,0.1,1.15,0.24,2.21,0.03   c1.69-0.34,2.51-1.21,2.9-1.83c0.96-1.44,0.64-2.99,0.53-3.56C219.16,47.89,218.9,47.32,218.68,46.96z"
   id="path61742" />
	<path
   d="M240.68,55.69l-0.93-9.13c-0.14-1.4-0.21-2.08-0.46-2.74c-0.71-2.03-2.35-2.15-3.21-2.06c-0.47,0.05-1.35,0.21-2.17,1.05   c-1.18,1.21-1.42,2.75-1.11,5.83l0.79,7.77l-4.33,0.44l-1.82-17.91l4.33-0.44l0.22,2.11c0.06-0.11,0.37-0.62,0.69-1.01   c1.52-1.75,3.94-2.14,4.55-2.2c2.65-0.27,4.33,0.93,4.99,1.7c1.31,1.53,1.44,3.8,1.62,5.62l1.07,10.53L240.68,55.69z"
   id="path61744" />
	<path
   d="M264.17,52.72c-0.99,0.95-3.38,2.75-7.08,2.81c-1.15,0.02-4-0.08-6.48-2.31c-2.08-1.91-2.88-4.38-2.92-7.19   c-0.02-1.51,0.17-2.96,0.72-4.33c0.76-1.81,2.94-5.16,8.16-5.24c4.03-0.06,6.19,1.99,7.15,3.34c0.85,1.25,1.71,3.43,1.88,6.92   l-13.32,0.21c0.08,0.54,0.28,1.65,1.2,2.72c0.62,0.75,1.72,1.7,3.95,1.66c2.23-0.04,3.51-1.1,4.08-1.72   c0.14-0.15,0.35-0.44,0.6-0.84l3.71,2.06C265.52,51.23,265.03,51.92,264.17,52.72z M260.4,42.16c-0.41-0.86-1.37-2.28-3.71-2.24   c-0.94,0.02-1.44,0.2-1.79,0.35c-2,0.86-2.44,2.88-2.54,3.5l8.42-0.14C260.79,43.63,260.67,42.77,260.4,42.16z"
   id="path61746" />
	<path
   d="M273.85,44.92c-0.39,0.98-0.46,1.88-0.53,2.92l-0.54,7.68l-4.17-0.3l1.27-17.95l4.17,0.3l-0.18,2.55   c0.33-0.52,0.72-1.03,1.18-1.4c1.54-1.3,3.87-1.2,4.38-1.17l0.36,0.03L279.47,42C278.57,41.94,275.12,41.69,273.85,44.92z"
   id="path61748" />
</g>
<g
   id="g61770">
	<path
   d="M532.42,54.85c-2.23,0.56-3.99,0.47-6.26,0.35l-8.09-0.44l1.38-25.38l9.1,0.49c1.15,0.06,2.55,0.21,3.65,0.49   c1.24,0.32,3.93,1.29,5.9,4.14c1.03,1.53,2.39,4.46,2.15,8.95C539.98,48.48,537.76,53.44,532.42,54.85z M533.16,36.06   c-0.41-0.38-1.24-1.08-2.59-1.51c-1.2-0.39-1.85-0.39-4.08-0.51l-2.52-0.14l-0.91,16.82l1.26,0.07c2.55,0.14,4.06,0.18,5.22,0.07   c0.65-0.07,2.47-0.26,3.85-1.77c1.69-1.93,1.82-5.63,1.84-5.96C535.43,39.36,534.39,37.29,533.16,36.06z"
   id="path61752" />
	<path
   d="M558.04,56.78c-1.15,0.76-3.81,2.11-7.47,1.51c-1.14-0.19-3.92-0.79-5.97-3.42c-1.71-2.25-2.05-4.82-1.6-7.59   c0.25-1.49,0.69-2.88,1.48-4.13c1.07-1.65,3.81-4.55,8.96-3.71c3.98,0.65,5.74,3.06,6.44,4.56c0.61,1.38,1.07,3.68,0.62,7.14   l-13.14-2.16c-0.02,0.54-0.02,1.68,0.69,2.89c0.48,0.85,1.39,1.98,3.59,2.34c2.2,0.36,3.65-0.46,4.32-0.97   c0.17-0.12,0.42-0.37,0.74-0.72l3.28,2.69C559.62,55.55,559.02,56.14,558.04,56.78z M556.2,45.72c-0.25-0.92-0.94-2.49-3.25-2.87   c-0.92-0.15-1.45-0.06-1.83,0.03c-2.12,0.49-2.91,2.4-3.12,2.99l8.31,1.36C556.32,47.24,556.35,46.37,556.2,45.72z"
   id="path61754" />
	<path
   d="M570.31,62.02l-4.46-1.15l-1.16-18.89l4.32,1.11l0.53,12.93l6.65-11.08l4.36,1.12L570.31,62.02z"
   id="path61756" />
	<path
   d="M593.24,67.25c-1.26,0.54-4.13,1.4-7.62,0.15c-1.08-0.39-3.72-1.48-5.26-4.44c-1.28-2.52-1.16-5.12-0.22-7.76   c0.51-1.42,1.2-2.71,2.2-3.8c1.35-1.43,4.56-3.8,9.48-2.05c3.8,1.35,5.1,4.03,5.52,5.64c0.36,1.47,0.4,3.81-0.67,7.14l-12.55-4.47   c-0.11,0.53-0.32,1.65,0.17,2.96c0.32,0.92,1.01,2.2,3.12,2.95c2.1,0.75,3.68,0.2,4.42-0.18c0.18-0.09,0.48-0.29,0.85-0.57   l2.75,3.23C595.02,66.32,594.32,66.79,593.24,67.25z M593.41,56.03c-0.08-0.95-0.48-2.62-2.69-3.4c-0.88-0.31-1.42-0.31-1.8-0.3   c-2.18,0.1-3.29,1.85-3.6,2.39l7.94,2.83C593.25,57.55,593.44,56.7,593.41,56.03z"
   id="path61758" />
	<path
   d="M596.67,71.13l10.18-23.29l4.02,1.76L600.7,72.89L596.67,71.13z"
   id="path61760" />
	<path
   d="M621.67,77.81c-1.49,1.29-5.3,3.52-10.05,1.02c-0.67-0.35-2.02-1.1-3.22-2.62c-1.27-1.6-3.13-5.43-0.6-10.24   c0.9-1.72,2.05-2.75,2.58-3.2c1.51-1.24,5.24-3.39,9.99-0.9c0.61,0.32,1.97,1.12,3.12,2.57c1.34,1.64,3.18,5.33,0.7,10.13   C623.88,75.14,623.06,76.63,621.67,77.81z M618.49,65.28c-0.35-0.18-1.34-0.62-2.49-0.53c-1.11,0.11-2.92,0.83-4.17,3.22   c-0.4,0.77-0.69,1.47-0.82,2.33c-0.15,0.9-0.17,3.65,2.44,5.02c2.9,1.52,5.55-0.34,6.77-2.91   C621.47,69.89,621.3,66.75,618.49,65.28z"
   id="path61762" />
	<path
   d="M637,90.43c-3.42,1.32-6.03-0.01-7.17-0.77c-0.9-0.6-2.35-1.81-2.98-4.38l-4.05,6.13l-3.61-2.38l13.15-19.92l3.61,2.38   l-0.89,1.35c1.02-0.23,3.02-0.59,5.31,0.92c0.96,0.63,2.97,2.22,3.36,5.37c0.17,1.45,0.11,4.21-1.88,7.22   C641.32,87.15,639.78,89.37,637,90.43z M639.28,81.62c0.46-1.81-0.17-3.73-1.76-4.79c-0.93-0.61-1.8-0.67-2.22-0.69   c-1.14,0.02-2.77,0.54-4.3,2.73c-0.4,0.6-0.73,1.24-0.96,1.91c-0.66,1.98-0.2,3.97,1.6,5.16c0.63,0.42,1.44,0.69,2.22,0.69   c1.25,0,2.91-0.62,4.42-2.91C638.46,83.45,639.02,82.61,639.28,81.62z"
   id="path61764" />
	<path
   d="M652.57,103.51c-1.37,0.09-4.36-0.06-7.24-2.39c-0.89-0.73-3.01-2.63-3.48-5.93c-0.37-2.8,0.61-5.21,2.38-7.39   c0.95-1.17,2.03-2.16,3.34-2.86c1.75-0.9,5.57-2.06,9.62,1.22c3.13,2.54,3.46,5.5,3.33,7.15c-0.15,1.5-0.89,3.73-3.01,6.51   l-10.34-8.39c-0.28,0.46-0.85,1.44-0.83,2.85c0,0.97,0.22,2.41,1.96,3.81s3.4,1.41,4.23,1.3c0.2-0.02,0.55-0.11,1-0.26l1.51,3.96   C654.56,103.22,653.74,103.44,652.57,103.51z M656.47,92.99c0.24-0.92,0.42-2.63-1.4-4.1c-0.73-0.59-1.23-0.77-1.6-0.88   c-2.09-0.63-3.72,0.64-4.19,1.05l6.54,5.31C655.82,94.37,656.28,93.63,656.47,92.99z"
   id="path61766" />
	<path
   d="M665.1,103.61c-0.93,0.51-1.55,1.16-2.27,1.92l-5.31,5.59l-3.03-2.88l12.4-13.05l3.03,2.88l-1.76,1.85   c0.58-0.19,1.21-0.34,1.8-0.33c2.01-0.03,3.76,1.53,4.12,1.88l0.26,0.25l-3.05,3.21C670.64,104.31,668.13,101.93,665.1,103.61z"
   id="path61768" />
</g>

<g
   aria-label="Libraries"
   id="text72949"
   style="font-size:26.6667px;line-height:1.25;-inkscape-font-specification:'sans-serif, Normal'"><path
     d="M 583.30084,331.09644 H 571.0352 v -19.38805 h 2.57813 v 17.09638 h 9.68751 z"
     id="path79779" /><path
     d="m 588.31387,314.11725 h -2.76042 v -2.53907 h 2.76042 z m -0.15625,16.97919 h -2.44792 v -14.54429 h 2.44792 z"
     id="path79781" /><path
     d="m 605.80087,323.71361 q 0,1.82292 -0.52083,3.28126 -0.50782,1.45833 -1.38021,2.44792 -0.92448,1.02864 -2.03126,1.54948 -1.10677,0.50781 -2.4349,0.50781 -1.23698,0 -2.16146,-0.29948 -0.92448,-0.28646 -1.82292,-0.78125 l -0.15625,0.67709 h -2.29166 v -20.26045 h 2.44791 v 7.2396 q 1.02865,-0.84636 2.18751,-1.38021 1.15885,-0.54688 2.60417,-0.54688 2.57813,0 4.0625,1.97917 1.4974,1.97917 1.4974,5.58594 z m -2.52604,0.0651 q 0,-2.60417 -0.85938,-3.94532 -0.85938,-1.35417 -2.77344,-1.35417 -1.06771,0 -2.16146,0.46875 -1.09375,0.45573 -2.03126,1.1849 v 8.33334 q 1.04167,0.46875 1.78386,0.65105 0.75521,0.18229 1.70573,0.18229 2.03126,0 3.17709,-1.32813 1.15886,-1.34115 1.15886,-4.19271 z"
     id="path79783" /><path
     d="m 618.69151,319.22142 h -0.13021 q -0.54687,-0.13021 -1.06771,-0.18229 -0.50781,-0.0651 -1.21093,-0.0651 -1.13282,0 -2.18751,0.50782 -1.05469,0.49479 -2.03125,1.28906 v 10.32554 h -2.44792 v -14.54429 h 2.44792 v 2.14844 q 1.45833,-1.17188 2.56511,-1.65365 1.11979,-0.49479 2.27865,-0.49479 0.63802,0 0.92448,0.0391 0.28645,0.026 0.85937,0.11719 z"
     id="path79785" /><path
     d="m 631.82955,331.09644 h -2.4349 v -1.54949 q -0.32552,0.22136 -0.88542,0.62501 -0.54687,0.39062 -1.06771,0.625 -0.61198,0.29948 -1.40625,0.49479 -0.79427,0.20833 -1.86198,0.20833 -1.96615,0 -3.33334,-1.30208 -1.36719,-1.30209 -1.36719,-3.32032 0,-1.65365 0.70313,-2.66927 0.71615,-1.02865 2.03125,-1.61459 1.32813,-0.58594 3.19011,-0.79427 1.86198,-0.20833 3.9974,-0.3125 v -0.37761 q 0,-0.83333 -0.29948,-1.38021 -0.28646,-0.54687 -0.83333,-0.85937 -0.52084,-0.29948 -1.25,-0.40365 -0.72917,-0.10417 -1.52344,-0.10417 -0.96355,0 -2.14844,0.26042 -1.1849,0.2474 -2.44792,0.72917 h -0.13021 v -2.48698 q 0.71614,-0.19532 2.07031,-0.42969 1.35417,-0.23438 2.66928,-0.23438 1.53646,0 2.66927,0.26042 1.14584,0.2474 1.97917,0.85938 0.82031,0.59896 1.25,1.54948 0.42969,0.95052 0.42969,2.35677 z m -2.4349,-3.58074 v -4.04948 q -1.11979,0.0651 -2.64323,0.19531 -1.51042,0.13021 -2.39584,0.3776 -1.05469,0.29948 -1.70573,0.93751 -0.65104,0.625 -0.65104,1.73177 0,1.25 0.75521,1.88802 0.75521,0.625 2.30469,0.625 1.28906,0 2.35677,-0.49479 1.06771,-0.50781 1.97917,-1.21094 z"
     id="path79787" /><path
     d="m 645.61863,319.22142 h -0.13021 q -0.54688,-0.13021 -1.06771,-0.18229 -0.50781,-0.0651 -1.21094,-0.0651 -1.13281,0 -2.1875,0.50782 -1.05469,0.49479 -2.03125,1.28906 v 10.32554 h -2.44792 v -14.54429 h 2.44792 v 2.14844 q 1.45833,-1.17188 2.5651,-1.65365 1.1198,-0.49479 2.27865,-0.49479 0.63802,0 0.92448,0.0391 0.28646,0.026 0.85938,0.11719 z"
     id="path79789" /><path
     d="m 650.55353,314.11725 h -2.76042 v -2.53907 h 2.76042 z m -0.15625,16.97919 h -2.44792 v -14.54429 h 2.44792 z"
     id="path79791" /><path
     d="m 667.41554,324.0782 h -10.71616 q 0,1.34115 0.40364,2.34375 0.40365,0.98959 1.10677,1.62761 0.67709,0.625 1.60157,0.9375 0.9375,0.3125 2.05729,0.3125 1.48438,0 2.98178,-0.58594 1.51042,-0.59896 2.14844,-1.17188 h 0.13021 v 2.66928 q -1.23698,0.52083 -2.52605,0.87239 -1.28906,0.35157 -2.70833,0.35157 -3.6198,0 -5.65105,-1.95313 -2.03126,-1.96615 -2.03126,-5.57292 0,-3.56772 1.94011,-5.66407 1.95313,-2.09636 5.13022,-2.09636 2.94271,0 4.53125,1.71875 1.60157,1.71875 1.60157,4.88282 z m -2.38282,-1.875 q -0.013,-1.92709 -0.97656,-2.98178 -0.95053,-1.05469 -2.90365,-1.05469 -1.96615,0 -3.13803,1.15886 -1.15885,1.15885 -1.3151,2.87761 z"
     id="path79793" /><path
     d="m 681.51712,326.90372 q 0,1.99219 -1.65365,3.26824 -1.64063,1.27604 -4.49219,1.27604 -1.61459,0 -2.96876,-0.37761 -1.34115,-0.39062 -2.25261,-0.84635 v -2.7474 h 0.13021 q 1.15886,0.8724 2.57813,1.39323 1.41927,0.50781 2.72136,0.50781 1.61458,0 2.52604,-0.52083 0.91146,-0.52083 0.91146,-1.64063 0,-0.85937 -0.49479,-1.30208 -0.49479,-0.44271 -1.90104,-0.75521 -0.52084,-0.11719 -1.36719,-0.27344 -0.83334,-0.15625 -1.52344,-0.33854 -1.91407,-0.50782 -2.72136,-1.48438 -0.79427,-0.98958 -0.79427,-2.42188 0,-0.89844 0.36458,-1.69271 0.37761,-0.79427 1.13282,-1.41927 0.72916,-0.61198 1.84896,-0.96354 1.13281,-0.36459 2.52604,-0.36459 1.30209,0 2.63021,0.32552 1.34115,0.31251 2.22657,0.76823 v 2.6172 h -0.13021 q -0.9375,-0.69011 -2.27865,-1.15886 -1.34115,-0.48177 -2.63021,-0.48177 -1.34115,0 -2.26563,0.52083 -0.92448,0.50782 -0.92448,1.52344 0,0.89844 0.5599,1.35417 0.54687,0.45573 1.77083,0.74219 0.67709,0.15625 1.51042,0.3125 0.84636,0.15625 1.40625,0.28646 1.70574,0.39062 2.63022,1.34115 0.92448,0.96354 0.92448,2.55208 z"
     id="path79795" /></g><g
   aria-label="Illustrator"
   id="text63869"
   style="font-size:26.6667px;line-height:1.25;-inkscape-font-specification:'sans-serif, Normal'"><path
     d="m 41.670741,265.90265 h -7.656259 v -1.97917 h 2.539065 v -15.42971 h -2.539065 v -1.97917 h 7.656259 v 1.97917 h -2.539065 v 15.42971 h 2.539065 z"
     id="path79836" /><path
     d="m 48.337416,265.90265 h -2.44792 v -20.26044 h 2.44792 z"
     id="path79838" /><path
     d="m 55.655135,265.90265 h -2.44792 v -20.26044 h 2.44792 z"
     id="path79840" /><path
     d="m 72.556197,265.90265 h -2.44792 v -1.61459 q -1.236981,0.97657 -2.369795,1.4974 -1.132814,0.52084 -2.500003,0.52084 -2.291669,0 -3.567713,-1.39324 -1.276043,-1.40625 -1.276043,-4.11458 v -9.44012 h 2.44792 v 8.28126 q 0,1.10677 0.104167,1.90104 0.104166,0.78126 0.442708,1.34115 0.351563,0.57292 0.91146,0.83334 0.559896,0.26041 1.627606,0.26041 0.950522,0 2.070315,-0.49479 1.132814,-0.49479 2.109378,-1.26302 v -10.85939 h 2.44792 z"
     id="path79842" /><path
     d="m 87.764549,261.70994 q 0,1.99219 -1.653648,3.26823 -1.640627,1.27604 -4.492193,1.27604 -1.614586,0 -2.968754,-0.3776 -1.341147,-0.39063 -2.252607,-0.84636 v -2.7474 h 0.130209 q 1.158855,0.8724 2.578128,1.39323 1.419272,0.50782 2.721357,0.50782 1.614586,0 2.526045,-0.52084 0.91146,-0.52083 0.91146,-1.64062 0,-0.85938 -0.494793,-1.30209 -0.494792,-0.44271 -1.901044,-0.75521 -0.520834,-0.11719 -1.367189,-0.27344 -0.833334,-0.15625 -1.523439,-0.33854 -1.914065,-0.50781 -2.721358,-1.48438 -0.794272,-0.98958 -0.794272,-2.42187 0,-0.89844 0.364584,-1.69271 0.377605,-0.79428 1.132814,-1.41928 0.729168,-0.61198 1.848961,-0.96354 1.132814,-0.36458 2.526045,-0.36458 1.302085,0 2.630211,0.32552 1.341148,0.3125 2.226566,0.76823 v 2.61719 h -0.130209 q -0.937501,-0.69011 -2.278649,-1.15886 -1.341147,-0.48177 -2.630211,-0.48177 -1.341148,0 -2.265628,0.52084 -0.924481,0.50781 -0.924481,1.52344 0,0.89843 0.559897,1.35416 0.546876,0.45573 1.770836,0.74219 0.677084,0.15625 1.510418,0.3125 0.846355,0.15625 1.406252,0.28646 1.705731,0.39063 2.630212,1.34115 0.92448,0.96354 0.92448,2.55209 z"
     id="path79844" /><path
     d="m 98.819249,265.77244 q -0.690105,0.18229 -1.510418,0.29948 -0.807293,0.11719 -1.445315,0.11719 -2.226565,0 -3.385421,-1.19792 -1.158855,-1.19792 -1.158855,-3.84115 v -7.73439 h -1.653648 v -2.05729 h 1.653648 v -4.17969 h 2.44792 v 4.17969 h 5.052089 v 2.05729 H 93.76716 v 6.62762 q 0,1.14583 0.05208,1.79687 0.05208,0.63803 0.364584,1.19792 0.286459,0.52084 0.781251,0.76823 0.507813,0.23438 1.53646,0.23438 0.598959,0 1.250002,-0.16927 0.651042,-0.1823 0.937501,-0.29948 h 0.130208 z"
     id="path79846" /><path
     d="m 110.85051,254.02763 h -0.13021 q -0.54687,-0.1302 -1.06771,-0.18229 -0.50781,-0.0651 -1.21093,-0.0651 -1.13282,0 -2.18751,0.50781 -1.05469,0.49479 -2.03125,1.28907 v 10.32553 h -2.44792 v -14.54429 h 2.44792 v 2.14844 q 1.45834,-1.17188 2.56511,-1.65365 1.11979,-0.49479 2.27865,-0.49479 0.63802,0 0.92448,0.0391 0.28646,0.026 0.85937,0.11719 z"
     id="path79848" /><path
     d="m 123.98855,265.90265 h -2.43489 v -1.54948 q -0.32553,0.22135 -0.88542,0.625 -0.54688,0.39062 -1.06771,0.625 -0.61198,0.29948 -1.40625,0.49479 -0.79428,0.20834 -1.86199,0.20834 -1.96614,0 -3.33333,-1.30209 -1.36719,-1.30208 -1.36719,-3.32032 0,-1.65364 0.70312,-2.66927 0.71615,-1.02865 2.03126,-1.61459 1.32812,-0.58593 3.1901,-0.79427 1.86199,-0.20833 3.99741,-0.3125 v -0.3776 q 0,-0.83334 -0.29948,-1.38021 -0.28646,-0.54688 -0.83334,-0.85938 -0.52083,-0.29948 -1.25,-0.40365 -0.72917,-0.10416 -1.52344,-0.10416 -0.96354,0 -2.14844,0.26041 -1.1849,0.2474 -2.44792,0.72917 h -0.13021 v -2.48698 q 0.71615,-0.19531 2.07032,-0.42969 1.35417,-0.23437 2.66927,-0.23437 1.53646,0 2.66928,0.26041 1.14583,0.2474 1.97916,0.85938 0.82032,0.59896 1.25001,1.54948 0.42968,0.95052 0.42968,2.35677 z m -2.43489,-3.58073 v -4.04949 q -1.1198,0.0651 -2.64324,0.19531 -1.51042,0.13021 -2.39583,0.37761 -1.05469,0.29948 -1.70573,0.9375 -0.65105,0.625 -0.65105,1.73177 0,1.25 0.75521,1.88803 0.75521,0.625 2.30469,0.625 1.28907,0 2.35678,-0.4948 1.06771,-0.50781 1.97917,-1.21093 z"
     id="path79850" /><path
     d="m 136.2542,265.77244 q -0.69011,0.18229 -1.51042,0.29948 -0.80729,0.11719 -1.44532,0.11719 -2.22656,0 -3.38542,-1.19792 -1.15885,-1.19792 -1.15885,-3.84115 v -7.73439 h -1.65365 v -2.05729 h 1.65365 v -4.17969 h 2.44792 v 4.17969 h 5.05209 v 2.05729 h -5.05209 v 6.62762 q 0,1.14583 0.0521,1.79687 0.0521,0.63803 0.36458,1.19792 0.28646,0.52084 0.78126,0.76823 0.50781,0.23438 1.53646,0.23438 0.59896,0 1.25,-0.16927 0.65104,-0.1823 0.9375,-0.29948 h 0.13021 z"
     id="path79852" /><path
     d="m 151.60577,258.63701 q 0,3.5547 -1.82292,5.61199 -1.82291,2.0573 -4.88281,2.0573 -3.08595,0 -4.90886,-2.0573 -1.8099,-2.05729 -1.8099,-5.61199 0,-3.55469 1.8099,-5.61198 1.82291,-2.07032 4.90886,-2.07032 3.0599,0 4.88281,2.07032 1.82292,2.05729 1.82292,5.61198 z m -2.52604,0 q 0,-2.82552 -1.10677,-4.19271 -1.10678,-1.38021 -3.07292,-1.38021 -1.99219,0 -3.09897,1.38021 -1.09375,1.36719 -1.09375,4.19271 0,2.73438 1.10677,4.15366 1.10678,1.40625 3.08595,1.40625 1.95312,0 3.0599,-1.39323 1.11979,-1.40626 1.11979,-4.16668 z"
     id="path79854" /><path
     d="m 164.47038,254.02763 h -0.13021 q -0.54688,-0.1302 -1.06771,-0.18229 -0.50781,-0.0651 -1.21094,-0.0651 -1.13281,0 -2.1875,0.50781 -1.05469,0.49479 -2.03125,1.28907 v 10.32553 h -2.44792 v -14.54429 h 2.44792 v 2.14844 q 1.45833,-1.17188 2.5651,-1.65365 1.1198,-0.49479 2.27865,-0.49479 0.63802,0 0.92448,0.0391 0.28646,0.026 0.85938,0.11719 z"
     id="path79856" /></g><g
   aria-label="Hand-coded"
   id="text66813"
   style="font-size:26.6667px;line-height:1.25;-inkscape-font-specification:'sans-serif, Normal'"><path
     d="m 585.86595,265.90265 h -2.57813 v -9.4922 h -9.67449 v 9.4922 H 571.0352 V 246.5146 h 2.57813 v 7.60418 h 9.67449 v -7.60418 h 2.57813 z"
     id="path79798" /><path
     d="m 602.18107,265.90265 h -2.4349 v -1.54948 q -0.32552,0.22135 -0.88541,0.625 -0.54688,0.39062 -1.06771,0.625 -0.61198,0.29948 -1.40626,0.49479 -0.79427,0.20834 -1.86198,0.20834 -1.96615,0 -3.33333,-1.30209 -1.36719,-1.30208 -1.36719,-3.32032 0,-1.65364 0.70312,-2.66927 0.71615,-1.02865 2.03125,-1.61459 1.32813,-0.58593 3.19011,-0.79427 1.86198,-0.20833 3.9974,-0.3125 v -0.3776 q 0,-0.83334 -0.29948,-1.38021 -0.28645,-0.54688 -0.83333,-0.85938 -0.52083,-0.29948 -1.25,-0.40365 -0.72917,-0.10416 -1.52344,-0.10416 -0.96354,0 -2.14844,0.26041 -1.1849,0.2474 -2.44792,0.72917 h -0.13021 v -2.48698 q 0.71615,-0.19531 2.07032,-0.42969 1.35416,-0.23437 2.66927,-0.23437 1.53646,0 2.66927,0.26041 1.14584,0.2474 1.97917,0.85938 0.82032,0.59896 1.25,1.54948 0.42969,0.95052 0.42969,2.35677 z m -2.4349,-3.58073 v -4.04949 q -1.11979,0.0651 -2.64323,0.19531 -1.51042,0.13021 -2.39584,0.37761 -1.05468,0.29948 -1.70573,0.9375 -0.65104,0.625 -0.65104,1.73177 0,1.25 0.75521,1.88803 0.75521,0.625 2.30469,0.625 1.28906,0 2.35677,-0.4948 1.06771,-0.50781 1.97917,-1.21093 z"
     id="path79800" /><path
     d="m 619.05609,265.90265 h -2.44792 v -8.28126 q 0,-1.00261 -0.11718,-1.875 -0.11719,-0.88542 -0.42969,-1.38021 -0.32552,-0.54688 -0.9375,-0.8073 -0.61198,-0.27343 -1.58855,-0.27343 -1.0026,0 -2.09635,0.49479 -1.09375,0.49479 -2.09636,1.26302 v 10.85939 h -2.44792 v -14.54429 h 2.44792 v 1.61459 q 1.14584,-0.95053 2.3698,-1.48438 1.22396,-0.53386 2.51302,-0.53386 2.35677,0 3.59375,1.41928 1.23698,1.41927 1.23698,4.08854 z"
     id="path79802" /><path
     d="m 635.56653,265.90265 h -2.44792 v -1.52344 q -1.05469,0.91146 -2.20052,1.41927 -1.14583,0.50782 -2.48698,0.50782 -2.60417,0 -4.14063,-2.00522 -1.52344,-2.00521 -1.52344,-5.5599 0,-1.84896 0.52083,-3.29427 0.53386,-1.44532 1.4323,-2.46094 0.88541,-0.98959 2.05729,-1.51042 1.1849,-0.52084 2.44792,-0.52084 1.14583,0 2.03125,0.2474 0.88542,0.23437 1.86198,0.74219 v -6.30209 h 2.44792 z m -2.44792,-3.58073 v -8.34637 q -0.98958,-0.44271 -1.77083,-0.61198 -0.78125,-0.16927 -1.70573,-0.16927 -2.0573,0 -3.20313,1.43229 -1.14584,1.4323 -1.14584,4.06251 0,2.59115 0.88542,3.94532 0.88542,1.34114 2.83855,1.34114 1.04166,0 2.10937,-0.45573 1.06771,-0.46875 1.99219,-1.19791 z"
     id="path79804" /><path
     d="m 648.09259,258.59795 h -8.12501 v -2.35677 h 8.12501 z"
     id="path79806" /><path
     d="m 663.24886,264.99119 q -1.22396,0.58594 -2.33074,0.91146 -1.09375,0.32552 -2.33073,0.32552 -1.57552,0 -2.89063,-0.45573 -1.3151,-0.46875 -2.2526,-1.40625 -0.95052,-0.9375 -1.47136,-2.3698 -0.52083,-1.43229 -0.52083,-3.34635 0,-3.56772 1.95312,-5.59897 1.96615,-2.03125 5.1823,-2.03125 1.25,0 2.44792,0.35156 1.21094,0.35156 2.21355,0.85938 v 2.72135 h -0.13021 q -1.11979,-0.87239 -2.31771,-1.34114 -1.1849,-0.46875 -2.31771,-0.46875 -2.08334,0 -3.29428,1.40625 -1.19792,1.39323 -1.19792,4.10157 0,2.63021 1.17188,4.04948 1.1849,1.40625 3.32032,1.40625 0.74218,0 1.51041,-0.19531 0.76823,-0.19531 1.38021,-0.50781 0.53386,-0.27344 1.00261,-0.57292 0.46875,-0.3125 0.74219,-0.53386 h 0.13021 z"
     id="path79808" /><path
     d="m 678.78273,258.63701 q 0,3.5547 -1.82292,5.61199 -1.82291,2.0573 -4.88281,2.0573 -3.08595,0 -4.90886,-2.0573 -1.8099,-2.05729 -1.8099,-5.61199 0,-3.55469 1.8099,-5.61198 1.82291,-2.07032 4.90886,-2.07032 3.0599,0 4.88281,2.07032 1.82292,2.05729 1.82292,5.61198 z m -2.52604,0 q 0,-2.82552 -1.10677,-4.19271 -1.10678,-1.38021 -3.07292,-1.38021 -1.99219,0 -3.09897,1.38021 -1.09375,1.36719 -1.09375,4.19271 0,2.73438 1.10677,4.15366 1.10678,1.40625 3.08595,1.40625 1.95312,0 3.0599,-1.39323 1.11979,-1.40626 1.11979,-4.16668 z"
     id="path79810" /><path
     d="m 694.36869,265.90265 h -2.44792 v -1.52344 q -1.05469,0.91146 -2.20053,1.41927 -1.14583,0.50782 -2.48698,0.50782 -2.60417,0 -4.14063,-2.00522 -1.52344,-2.00521 -1.52344,-5.5599 0,-1.84896 0.52084,-3.29427 0.53385,-1.44532 1.43229,-2.46094 0.88542,-0.98959 2.05729,-1.51042 1.1849,-0.52084 2.44792,-0.52084 1.14584,0 2.03126,0.2474 0.88541,0.23437 1.86198,0.74219 v -6.30209 h 2.44792 z m -2.44792,-3.58073 v -8.34637 q -0.98959,-0.44271 -1.77084,-0.61198 -0.78125,-0.16927 -1.70573,-0.16927 -2.05729,0 -3.20313,1.43229 -1.14583,1.4323 -1.14583,4.06251 0,2.59115 0.88542,3.94532 0.88541,1.34114 2.83854,1.34114 1.04167,0 2.10938,-0.45573 1.06771,-0.46875 1.99219,-1.19791 z"
     id="path79812" /><path
     d="m 711.36089,258.88441 h -10.71616 q 0,1.34115 0.40365,2.34375 0.40365,0.98959 1.10677,1.62761 0.67709,0.625 1.60157,0.9375 0.9375,0.3125 2.05729,0.3125 1.48438,0 2.98178,-0.58594 1.51042,-0.59896 2.14844,-1.17187 h 0.13021 v 2.66927 q -1.23699,0.52084 -2.52605,0.8724 -1.28906,0.35156 -2.70834,0.35156 -3.61979,0 -5.65105,-1.95313 -2.03125,-1.96614 -2.03125,-5.57292 0,-3.56771 1.94011,-5.66407 1.95313,-2.09636 5.13021,-2.09636 2.94272,0 4.53126,1.71876 1.60156,1.71875 1.60156,4.88281 z m -2.38281,-1.875 q -0.013,-1.92709 -0.97657,-2.98178 -0.95052,-1.05468 -2.90364,-1.05468 -1.96615,0 -3.13803,1.15885 -1.15886,1.15886 -1.31511,2.87761 z"
     id="path79814" /><path
     d="m 726.86873,265.90265 h -2.44792 v -1.52344 q -1.05469,0.91146 -2.20053,1.41927 -1.14583,0.50782 -2.48698,0.50782 -2.60417,0 -4.14063,-2.00522 -1.52344,-2.00521 -1.52344,-5.5599 0,-1.84896 0.52083,-3.29427 0.53386,-1.44532 1.4323,-2.46094 0.88542,-0.98959 2.05729,-1.51042 1.1849,-0.52084 2.44792,-0.52084 1.14584,0 2.03125,0.2474 0.88542,0.23437 1.86199,0.74219 v -6.30209 h 2.44792 z m -2.44792,-3.58073 v -8.34637 q -0.98959,-0.44271 -1.77084,-0.61198 -0.78125,-0.16927 -1.70573,-0.16927 -2.05729,0 -3.20313,1.43229 -1.14583,1.4323 -1.14583,4.06251 0,2.59115 0.88541,3.94532 0.88542,1.34114 2.83855,1.34114 1.04167,0 2.10938,-0.45573 1.06771,-0.46875 1.99219,-1.19791 z"
     id="path79816" /></g><g
   aria-label="Inkscape"
   id="text78047"
   style="font-size:26.6667px;line-height:1.25;-inkscape-font-specification:'sans-serif, Normal'"><path
     d="m 345.66412,262.9726 h -7.65626 v -1.97917 h 2.53906 v -15.42971 h -2.53906 v -1.97917 h 7.65626 v 1.97917 h -2.53907 v 15.42971 h 2.53907 z"
     id="path79819" /><path
     d="m 362.0183,262.9726 h -2.44792 v -8.28127 q 0,-1.0026 -0.11719,-1.875 -0.11718,-0.88542 -0.42968,-1.38021 -0.32552,-0.54687 -0.9375,-0.80729 -0.61198,-0.27344 -1.58855,-0.27344 -1.0026,0 -2.09635,0.49479 -1.09376,0.4948 -2.09636,1.26303 v 10.85939 h -2.44792 v -14.54429 h 2.44792 v 1.61458 q 1.14583,-0.95052 2.36979,-1.48438 1.22396,-0.53385 2.51303,-0.53385 2.35677,0 3.59375,1.41927 1.23698,1.41927 1.23698,4.08855 z"
     id="path79821" /><path
     d="m 379.93499,262.9726 h -3.22917 l -5.83334,-6.3672 -1.58854,1.51042 v 4.85678 h -2.44792 v -20.26045 h 2.44792 v 12.99481 l 7.07032,-7.27865 h 3.08594 l -6.75782,6.71875 z"
     id="path79823" /><path
     d="m 392.90376,258.77988 q 0,1.99219 -1.65365,3.26823 -1.64063,1.27605 -4.49219,1.27605 -1.61459,0 -2.96876,-0.37761 -1.34114,-0.39062 -2.2526,-0.84635 v -2.7474 h 0.13021 q 1.15885,0.8724 2.57812,1.39323 1.41928,0.50781 2.72136,0.50781 1.61459,0 2.52605,-0.52083 0.91146,-0.52083 0.91146,-1.64063 0,-0.85937 -0.4948,-1.30208 -0.49479,-0.44271 -1.90104,-0.75521 -0.52083,-0.11719 -1.36719,-0.27344 -0.83333,-0.15625 -1.52344,-0.33854 -1.91406,-0.50782 -2.72136,-1.48438 -0.79427,-0.98958 -0.79427,-2.42188 0,-0.89844 0.36458,-1.69271 0.37761,-0.79427 1.13282,-1.41927 0.72917,-0.61198 1.84896,-0.96354 1.13281,-0.36459 2.52604,-0.36459 1.30209,0 2.63022,0.32552 1.34114,0.3125 2.22656,0.76823 v 2.6172 h -0.13021 q -0.9375,-0.69011 -2.27865,-1.15886 -1.34114,-0.48177 -2.63021,-0.48177 -1.34115,0 -2.26563,0.52083 -0.92448,0.50782 -0.92448,1.52344 0,0.89844 0.5599,1.35417 0.54688,0.45573 1.77084,0.74219 0.67708,0.15625 1.51041,0.3125 0.84636,0.15625 1.40626,0.28646 1.70573,0.39062 2.63021,1.34115 0.92448,0.96354 0.92448,2.55208 z"
     id="path79825" /><path
     d="m 407.16159,262.06114 q -1.22396,0.58593 -2.33073,0.91146 -1.09376,0.32552 -2.33074,0.32552 -1.57552,0 -2.89062,-0.45573 -1.31511,-0.46875 -2.25261,-1.40626 -0.95052,-0.9375 -1.47136,-2.36979 -0.52083,-1.43229 -0.52083,-3.34636 0,-3.56771 1.95313,-5.59896 1.96614,-2.03126 5.18229,-2.03126 1.25001,0 2.44792,0.35157 1.21094,0.35156 2.21355,0.85937 v 2.72136 h -0.13021 q -1.11979,-0.8724 -2.31771,-1.34115 -1.1849,-0.46875 -2.31771,-0.46875 -2.08334,0 -3.29428,1.40625 -1.19792,1.39324 -1.19792,4.10157 0,2.63021 1.17188,4.04949 1.1849,1.40625 3.32032,1.40625 0.74219,0 1.51042,-0.19531 0.76823,-0.19532 1.38021,-0.50782 0.53385,-0.27344 1.0026,-0.57292 0.46875,-0.3125 0.74219,-0.53385 h 0.13021 z"
     id="path79827" /><path
     d="m 421.60171,262.9726 h -2.4349 v -1.54949 q -0.32552,0.22136 -0.88542,0.625 -0.54687,0.39063 -1.06771,0.62501 -0.61198,0.29948 -1.40625,0.49479 -0.79427,0.20833 -1.86198,0.20833 -1.96615,0 -3.33334,-1.30208 -1.36719,-1.30209 -1.36719,-3.32032 0,-1.65365 0.70313,-2.66927 0.71615,-1.02865 2.03125,-1.61459 1.32813,-0.58594 3.19011,-0.79427 1.86198,-0.20834 3.9974,-0.3125 v -0.37761 q 0,-0.83333 -0.29948,-1.38021 -0.28646,-0.54687 -0.83333,-0.85937 -0.52084,-0.29948 -1.25,-0.40365 -0.72917,-0.10417 -1.52344,-0.10417 -0.96355,0 -2.14844,0.26042 -1.1849,0.2474 -2.44792,0.72917 h -0.13021 v -2.48698 q 0.71614,-0.19532 2.07031,-0.42969 1.35417,-0.23438 2.66928,-0.23438 1.53646,0 2.66927,0.26042 1.14584,0.2474 1.97917,0.85938 0.82031,0.59896 1.25,1.54948 0.42969,0.95052 0.42969,2.35677 z m -2.4349,-3.58074 v -4.04948 q -1.11979,0.0651 -2.64323,0.19531 -1.51042,0.13021 -2.39584,0.3776 -1.05469,0.29948 -1.70573,0.93751 -0.65104,0.625 -0.65104,1.73177 0,1.25 0.75521,1.88802 0.75521,0.625 2.30469,0.625 1.28906,0 2.35677,-0.49479 1.06771,-0.50781 1.97917,-1.21094 z"
     id="path79829" /><path
     d="m 439.11476,255.52467 q 0,1.77083 -0.50782,3.24219 -0.50781,1.45834 -1.43229,2.47396 -0.85938,0.96355 -2.03125,1.4974 -1.15886,0.52083 -2.46094,0.52083 -1.13282,0 -2.0573,-0.24739 -0.91146,-0.2474 -1.86198,-0.76823 v 6.09376 h -2.44792 v -19.90888 h 2.44792 v 1.52344 q 0.97656,-0.82032 2.1875,-1.36719 1.22396,-0.5599 2.60417,-0.5599 2.63021,0 4.08855,1.99219 1.47136,1.97917 1.47136,5.50782 z m -2.52605,0.0651 q 0,-2.63021 -0.89844,-3.93229 -0.89844,-1.30209 -2.76042,-1.30209 -1.05469,0 -2.1224,0.45573 -1.06771,0.45573 -2.04427,1.19792 v 8.2422 q 1.04167,0.46875 1.78386,0.63802 0.75521,0.16927 1.70573,0.16927 2.04427,0 3.19011,-1.38021 1.14583,-1.38021 1.14583,-4.08855 z"
     id="path79831" /><path
     d="M 455.10436,255.95436 H 444.3882 q 0,1.34114 0.40364,2.34375 0.40365,0.98958 1.10677,1.62761 0.67709,0.625 1.60157,0.9375 0.9375,0.3125 2.05729,0.3125 1.48438,0 2.98178,-0.58594 1.51042,-0.59896 2.14844,-1.17188 h 0.13021 v 2.66928 q -1.23698,0.52083 -2.52605,0.87239 -1.28906,0.35157 -2.70833,0.35157 -3.6198,0 -5.65105,-1.95313 -2.03126,-1.96615 -2.03126,-5.57292 0,-3.56772 1.94011,-5.66407 1.95313,-2.09636 5.13022,-2.09636 2.94271,0 4.53125,1.71875 1.60157,1.71875 1.60157,4.88282 z m -2.38282,-1.87501 q -0.013,-1.92708 -0.97656,-2.98177 -0.95053,-1.05469 -2.90365,-1.05469 -1.96615,0 -3.13803,1.15886 -1.15885,1.15885 -1.3151,2.8776 z"
     id="path79833" /></g></svg>
