<?xml version="1.0" encoding="UTF-8" standalone="no"?>
<svg
   id="svgElementsShowcase"
   viewBox="0 0 120 120"
   version="1.1"
   inkscape:version="1.1 (c68e22c387, 2021-05-23)"
   sodipodi:docname="svg-showcase.svg"
   xmlns:inkscape="http://www.inkscape.org/namespaces/inkscape"
   xmlns:sodipodi="http://sodipodi.sourceforge.net/DTD/sodipodi-0.dtd"
   xmlns="http://www.w3.org/2000/svg"
   xmlns:svg="http://www.w3.org/2000/svg"
   class="svg-elements">
  <defs
     id="defs16" />
  <sodipodi:namedview
     id="namedview14"
     pagecolor="#ffffff"
     bordercolor="#666666"
     borderopacity="1.0"
     inkscape:pageshadow="2"
     inkscape:pageopacity="0.0"
     inkscape:pagecheckerboard="0"
     showgrid="false"
     inkscape:zoom="6.9333333"
     inkscape:cx="20.697115"
     inkscape:cy="58.91827"
     inkscape:window-width="1920"
     inkscape:window-height="1017"
     inkscape:window-x="-8"
     inkscape:window-y="-8"
     inkscape:window-maximized="1"
     inkscape:current-layer="layer1"
     inkscape:snap-to-guides="true"
     inkscape:snap-grids="true"
     inkscape:snap-page="false" />
  <g
     inkscape:label="Layer 1"
     inkscape:groupmode="layer"
     id="layer1"
     transform="translate(-20.01404,-27.180182)">
    <path
       style="display:inline;fill:none;stroke:none;stroke-width:1px;stroke-linecap:butt;stroke-linejoin:miter;stroke-opacity:1"
       d="m 39.88904,76.97826 c -0.288461,11.68269 10.384616,37.5 36.778846,35.48077 26.394234,-2.01923 20.480769,-2.16346 20.480769,-2.16346"
       id="path30784"
       inkscape:label="circle-label-path" />
    <line
       style="fill:none;stroke:#000000;stroke-width:0.141022px;stroke-linecap:butt;stroke-linejoin:miter;stroke-opacity:1"
       x1="50"
       y1="100"
       y2="50"
       x2="100"
       id="line3"
       inkscape:label="line" />
    <g
       aria-label="line"
       transform="rotate(-45.520498)"
       id="text4662"
       style="font-size:40px;line-height:1.25;display:inline;stroke-width:0.25"
       inkscape:label="line-label">
      <path
         d="m -29.803613,105.56413 h -0.61198 v -5.0651 h 0.61198 z"
         style="font-size:6.66667px;-inkscape-font-specification:'sans-serif, Normal';fill:none;stroke:#000000"
         id="path16556" />
      <path
         d="m -27.935123,101.31934 h -0.690104 v -0.63477 h 0.690104 z m -0.03906,4.24479 h -0.61198 v -3.63607 h 0.61198 z"
         style="font-size:6.66667px;-inkscape-font-specification:'sans-serif, Normal';fill:none;stroke:#000000"
         id="path16558" />
      <path
         d="m -23.722881,105.56413 h -0.611979 v -2.07031 q 0,-0.25065 -0.0293,-0.46875 -0.0293,-0.22136 -0.107422,-0.34505 -0.08138,-0.13672 -0.234375,-0.20183 -0.152995,-0.0684 -0.397136,-0.0684 -0.250651,0 -0.524089,0.1237 -0.273437,0.1237 -0.524089,0.31576 v 2.71484 h -0.611979 v -3.63607 h 0.611979 v 0.40365 q 0.286459,-0.23763 0.592449,-0.37109 0.305989,-0.13347 0.628255,-0.13347 0.589193,0 0.898438,0.35482 0.309245,0.35482 0.309245,1.02214 z"
         style="font-size:6.66667px;-inkscape-font-specification:'sans-serif, Normal';fill:none;stroke:#000000"
         id="path16560" />
      <path
         d="m -19.500874,103.80957 h -2.679038 q 0,0.33529 0.100912,0.58594 0.100911,0.2474 0.276693,0.4069 0.169271,0.15625 0.400391,0.23438 0.234375,0.0781 0.514323,0.0781 0.371094,0 0.745443,-0.14648 0.377604,-0.14974 0.537109,-0.29297 h 0.03255 v 0.66732 q -0.309244,0.13021 -0.63151,0.2181 -0.322266,0.0879 -0.677084,0.0879 -0.904948,0 -1.412761,-0.48828 -0.507813,-0.49154 -0.507813,-1.39323 0,-0.89193 0.485027,-1.41602 0.488281,-0.52409 1.282552,-0.52409 0.735678,0 1.132813,0.42969 0.400391,0.42969 0.400391,1.2207 z m -0.595703,-0.46875 q -0.0033,-0.48177 -0.244141,-0.74544 -0.23763,-0.26367 -0.725912,-0.26367 -0.491537,0 -0.784505,0.28971 -0.289714,0.28972 -0.328777,0.7194 z"
         style="font-size:6.66667px;-inkscape-font-specification:'sans-serif, Normal';fill:none;stroke:#000000"
         id="path16562" />
    </g>       
    <rect
       style="display:inline;fill:none;fill-rule:evenodd;stroke:#000000;stroke-width:0.264999;stroke-opacity:1"
       id="rect883"
       width="50"
       height="50"
       x="50"
       y="50"
       inkscape:label="rectangle" />
    <g
       aria-label="rect"
       id="text12251"
       style="font-size:40px;line-height:1.25;display:inline;stroke-width:0.25"
       inkscape:label="rect-label">
      <path
         d="m 56.779359,96.759512 h -0.03255 q -0.136719,-0.03255 -0.266927,-0.04557 -0.126953,-0.01628 -0.302735,-0.01628 -0.283203,0 -0.546875,0.126954 -0.263672,0.123698 -0.507813,0.322265 v 2.581382 H 54.51048 v -3.63607 h 0.611979 v 0.53711 q 0.364584,-0.292969 0.641277,-0.413412 0.279948,-0.123698 0.569662,-0.123698 0.159505,0 0.231119,0.0098 0.07162,0.0065 0.214844,0.0293 z"
         style="font-size:6.66667px;-inkscape-font-specification:'sans-serif, Normal';fill:none;stroke:#000000"
         id="path16529" />
      <path
         d="m 60.399153,97.973706 h -2.679038 q 0,0.335286 0.100911,0.585938 0.100912,0.247395 0.276693,0.406901 0.169271,0.15625 0.400391,0.234375 0.234375,0.07813 0.514323,0.07813 0.371094,0 0.745443,-0.146485 0.377605,-0.149739 0.53711,-0.292968 h 0.03255 v 0.667318 q -0.309245,0.130208 -0.631511,0.218099 -0.322265,0.08789 -0.677083,0.08789 -0.904949,0 -1.412761,-0.488281 -0.507813,-0.491537 -0.507813,-1.39323 0,-0.891928 0.485026,-1.416016 0.488282,-0.524089 1.282553,-0.524089 0.735677,0 1.132813,0.429688 0.400391,0.429687 0.400391,1.220703 z m -0.595704,-0.46875 q -0.0033,-0.481772 -0.24414,-0.745444 -0.237631,-0.263672 -0.725912,-0.263672 -0.491537,0 -0.784506,0.289714 -0.289714,0.289714 -0.328776,0.719402 z"
         style="font-size:6.66667px;-inkscape-font-specification:'sans-serif, Normal';fill:none;stroke:#000000"
         id="path16531" />
      <path
         d="m 64.015691,99.500399 q -0.30599,0.146485 -0.582683,0.227865 -0.273437,0.08138 -0.582682,0.08138 -0.393881,0 -0.722657,-0.113932 -0.328776,-0.117188 -0.563151,-0.351563 -0.23763,-0.234375 -0.367839,-0.592448 -0.130208,-0.358073 -0.130208,-0.836589 0,-0.891928 0.488281,-1.39974 0.491537,-0.507813 1.295574,-0.507813 0.3125,0 0.611979,0.08789 0.302735,0.08789 0.553386,0.214843 v 0.680339 h -0.03255 q -0.279948,-0.218099 -0.579428,-0.335286 -0.296224,-0.117188 -0.579427,-0.117188 -0.520833,0 -0.823568,0.351563 -0.299479,0.348307 -0.299479,1.025391 0,0.657552 0.292969,1.01237 0.296224,0.351563 0.830078,0.351563 0.185547,0 0.377604,-0.04883 0.192058,-0.04883 0.345053,-0.126953 0.133463,-0.06836 0.250651,-0.14323 0.117187,-0.07813 0.185547,-0.133463 h 0.03255 z"
         style="font-size:6.66667px;-inkscape-font-specification:'sans-serif, Normal';fill:none;stroke:#000000"
         id="path16533" />
      <path
         d="m 66.688218,99.695712 q -0.172526,0.04557 -0.377604,0.07487 -0.201823,0.0293 -0.361328,0.0293 -0.556641,0 -0.846355,-0.299479 -0.289714,-0.299479 -0.289714,-0.960287 v -1.933594 h -0.413411 v -0.514324 h 0.413411 v -1.044922 h 0.61198 v 1.044922 h 1.263021 v 0.514324 h -1.263021 v 1.656901 q 0,0.286459 0.01302,0.449219 0.01302,0.159506 0.09115,0.29948 0.07161,0.130208 0.195312,0.192057 0.126953,0.05859 0.384115,0.05859 0.14974,0 0.3125,-0.04232 0.162761,-0.04557 0.234375,-0.07487 h 0.03255 z"
         style="font-size:6.66667px;-inkscape-font-specification:'sans-serif, Normal';fill:none;stroke:#000000"
         id="path16535" />
    </g>       
    <circle
       style="display:inline;fill:none;fill-rule:evenodd;stroke:#000000;stroke-width:0.341378;stroke-opacity:1"
       id="path1049"
       cx="75"
       cy="75"
       r="36"
       inkscape:label="circle" />
    <g
       aria-label="          circle/elipse"
       transform="rotate(-16.525826,67.19239,76.048417)"
       id="text30740"
       style="font-size:40px;line-height:1.25;display:inline;stroke-width:0.25"
       inkscape:label="circle-label">
      <path
         d="m 49.658267,101.24456 q -0.304739,-0.14907 -0.540244,-0.31556 -0.233485,-0.16394 -0.425369,-0.40645 -0.244399,-0.30889 -0.359054,-0.637416 -0.112102,-0.330544 -0.07373,-0.659772 0.03635,-0.33178 0.236366,-0.656073 0.200013,-0.324292 0.575271,-0.621207 0.699462,-0.553432 1.40067,-0.485608 0.703228,0.07038 1.202125,0.700914 0.193904,0.245067 0.310803,0.534458 0.118919,0.291944 0.174887,0.567281 l -0.533531,0.422144 -0.0202,-0.02553 q -0.0027,-0.354867 -0.09659,-0.662437 -0.0919,-0.305017 -0.26763,-0.527109 -0.323172,-0.408445 -0.786716,-0.427712 -0.458972,-0.01873 -0.98995,0.40139 -0.515662,0.408005 -0.612131,0.857916 -0.0919,0.450445 0.239356,0.869101 0.11513,0.14551 0.272592,0.26583 0.157461,0.12031 0.31366,0.19182 0.136421,0.0623 0.267849,0.10769 0.13398,0.0434 0.219794,0.0627 l 0.0202,0.0255 z"
         style="font-size:6.66667px;-inkscape-font-specification:'sans-serif, Normal';fill:none;stroke:#000000"
         id="path16688" />
      <path
         d="m 53.596918,99.575494 -0.465853,-0.509142 0.468314,-0.428496 0.465853,0.509141 z m -3.158071,2.836616 -0.413115,-0.4515 2.682601,-2.454521 0.413114,0.451503 z"
         style="font-size:6.66667px;-inkscape-font-specification:'sans-serif, Normal';fill:none;stroke:#000000"
         id="path16690" />
      <path
         d="m 54.964427,102.7129 -0.02353,-0.0225 q -0.07632,-0.11802 -0.161427,-0.21742 -0.08051,-0.0995 -0.207555,-0.22098 -0.204687,-0.19572 -0.482995,-0.28619 -0.276058,-0.0928 -0.589743,-0.11804 l -1.784003,1.86571 -0.442311,-0.42294 2.512901,-2.62799 0.442311,0.42294 -0.371198,0.3882 q 0.465977,0.0402 0.749196,0.1444 0.287822,0.10406 0.497215,0.30429 0.115283,0.11023 0.160294,0.16678 0.04726,0.0542 0.135032,0.16966 z"
         style="font-size:6.66667px;-inkscape-font-specification:'sans-serif, Normal';fill:none;stroke:#000000"
         id="path16692" />
      <path
         d="m 55.609363,106.7145 q -0.33096,-0.0745 -0.598596,-0.182 -0.26508,-0.10546 -0.507868,-0.297 -0.309235,-0.24396 -0.49679,-0.53704 -0.18554,-0.29564 -0.224382,-0.62481 -0.0414,-0.33119 0.07816,-0.69296 0.119553,-0.36177 0.415932,-0.73745 0.552433,-0.70025 1.250307,-0.79651 0.700429,-0.0942 1.331677,0.40376 0.245344,0.19355 0.426028,0.44804 0.18324,0.25651 0.301394,0.51143 l -0.421381,0.53413 -0.02556,-0.0202 q -0.0847,-0.34462 -0.247241,-0.62212 -0.159983,-0.27547 -0.382325,-0.45088 -0.408906,-0.32259 -0.86433,-0.23408 -0.450853,0.088 -0.870218,0.61954 -0.407269,0.51625 -0.397023,0.97627 0.01482,0.45948 0.433946,0.79014 0.145673,0.11492 0.3267,0.19554 0.181026,0.0806 0.349531,0.11404 0.147122,0.029 0.285498,0.0428 0.140392,0.0113 0.228336,0.0101 l 0.02556,0.0202 z"
         style="font-size:6.66667px;-inkscape-font-specification:'sans-serif, Normal';fill:none;stroke:#000000"
         id="path16694" />
      <path
         d="m 56.650246,107.65391 -0.510406,-0.33765 2.794556,-4.22442 0.510406,0.33765 z"
         style="font-size:6.66667px;-inkscape-font-specification:'sans-serif, Normal';fill:none;stroke:#000000"
         id="path16696" />
      <path
         d="m 61.176028,108.20141 -2.364302,-1.25989 q -0.157678,0.2959 -0.186497,0.56456 -0.02729,0.26579 0.05283,0.48922 0.0759,0.2175 0.243131,0.39514 0.1701,0.17917 0.41716,0.31082 0.327497,0.17452 0.726756,0.22129 0.403662,0.0454 0.611786,-0.006 l 0.02873,0.0153 -0.313824,0.58892 q -0.334148,-0.0305 -0.659887,-0.10451 -0.325738,-0.074 -0.638872,-0.24085 -0.798634,-0.42558 -1.017161,-1.09531 -0.216996,-0.6726 0.207049,-1.46836 0.419452,-0.78715 1.093964,-1.02157 0.677384,-0.23289 1.378344,0.14064 0.649249,0.34597 0.797657,0.91194 0.15128,0.5675 -0.220716,1.26559 z m -0.305278,-0.69382 q 0.223693,-0.42671 0.135106,-0.77268 -0.08572,-0.34445 -0.516633,-0.57408 -0.43379,-0.23116 -0.828586,-0.11326 -0.391924,0.11944 -0.628469,0.48027 z"
         style="font-size:6.66667px;-inkscape-font-specification:'sans-serif, Normal';fill:none;stroke:#000000"
         id="path16698" />
    </g>       
    <path
       sodipodi:type="star"
       style="display:inline;fill:none;fill-rule:evenodd;stroke:#000000;stroke-width:1.00157;stroke-opacity:1"
       id="path1258"
       inkscape:flatsided="true"
       sodipodi:sides="5"
       sodipodi:cx="337.34515"
       sodipodi:cy="413.94754"
       sodipodi:r1="94.979309"
       sodipodi:r2="76.839874"
       sodipodi:arg1="-2.7265179"
       sodipodi:arg2="-2.0981994"
       inkscape:rounded="0"
       inkscape:randomized="0"
       d="m 250.4309,375.64634 96.48288,-56.19489 83.25936,74.39549 -45.02576,102.17384 -111.08681,-11.24859 z"
       transform="matrix(0.49458715,-0.18078119,0.16966486,0.46417471,-165.38332,-54.814305)"
       inkscape:transform-center-x="3.4919432"
       inkscape:transform-center-y="-0.63842278"
       inkscape:label="poligon" />
    <g
       aria-label="polyline/poligon"
       transform="rotate(56.383673)"
       id="text12263"
       style="font-size:40px;line-height:1.25;display:inline;stroke-width:0.25"
       inkscape:label="poligon-label">
      <path
         d="m 78.268394,18.749037 q 0,0.442709 -0.126953,0.810547 -0.126954,0.364584 -0.358074,0.61849 -0.214843,0.240886 -0.507812,0.374349 -0.289714,0.130209 -0.615235,0.130209 -0.283203,0 -0.514323,-0.06185 -0.227865,-0.06185 -0.465495,-0.192058 v 1.523439 h -0.61198 v -4.977216 h 0.61198 v 0.380859 q 0.244141,-0.205078 0.546875,-0.341797 0.30599,-0.139974 0.651042,-0.139974 0.657553,0 1.022136,0.498047 0.367839,0.494792 0.367839,1.376955 z m -0.631511,0.01628 q 0,-0.657552 -0.224609,-0.983073 -0.22461,-0.325521 -0.690105,-0.325521 -0.263672,0 -0.530599,0.113932 -0.266927,0.113933 -0.511068,0.29948 v 2.060547 q 0.260417,0.117188 0.445964,0.159506 0.188802,0.04232 0.426432,0.04232 0.511068,0 0.797527,-0.345052 0.286458,-0.345052 0.286458,-1.022136 z"
         style="font-size:6.66667px;-inkscape-font-specification:'sans-serif, Normal';fill:none;stroke:#000000"
         id="path16583" />
      <path
         d="m 82.32113,18.79461 q 0,0.888672 -0.455729,1.402996 -0.45573,0.514323 -1.220704,0.514323 -0.771485,0 -1.227214,-0.514323 -0.452474,-0.514324 -0.452474,-1.402996 0,-0.888672 0.452474,-1.402995 0.455729,-0.517579 1.227214,-0.517579 0.764974,0 1.220704,0.517579 0.455729,0.514323 0.455729,1.402995 z m -0.631511,0 q 0,-0.70638 -0.276692,-1.048177 -0.276693,-0.345053 -0.76823,-0.345053 -0.498047,0 -0.77474,0.345053 -0.273438,0.341797 -0.273438,1.048177 0,0.683594 0.276693,1.038412 0.276693,0.351563 0.771485,0.351563 0.488282,0 0.764974,-0.348308 0.279948,-0.351562 0.279948,-1.041667 z"
         style="font-size:6.66667px;-inkscape-font-specification:'sans-serif, Normal';fill:none;stroke:#000000"
         id="path16585" />
      <path
         d="m 83.886886,20.611017 h -0.611979 v -5.065106 h 0.611979 z"
         style="font-size:6.66667px;-inkscape-font-specification:'sans-serif, Normal';fill:none;stroke:#000000"
         id="path16587" />
      <path
         d="m 88.242357,16.974948 -2.122397,4.977216 h -0.654297 l 0.677083,-1.516928 -1.448568,-3.460288 h 0.664063 l 1.116537,2.695314 1.126302,-2.695314 z"
         style="font-size:6.66667px;-inkscape-font-specification:'sans-serif, Normal';fill:none;stroke:#000000"
         id="path16589" />
      <path
         d="m 89.661628,20.611017 h -0.611979 v -5.065106 h 0.611979 z"
         style="font-size:6.66667px;-inkscape-font-specification:'sans-serif, Normal';fill:none;stroke:#000000"
         id="path16591" />
      <path
         d="m 91.53012,16.366224 h -0.690105 v -0.634766 h 0.690105 z m -0.03906,4.244793 h -0.611979 v -3.636069 h 0.611979 z"
         style="font-size:6.66667px;-inkscape-font-specification:'sans-serif, Normal';fill:none;stroke:#000000"
         id="path16593" />
      <path
         d="m 95.742361,20.611017 h -0.61198 v -2.070313 q 0,-0.250651 -0.0293,-0.46875 -0.0293,-0.221355 -0.107422,-0.345053 -0.08138,-0.136719 -0.234375,-0.201823 -0.152995,-0.06836 -0.397136,-0.06836 -0.250651,0 -0.524089,0.123698 -0.273438,0.123698 -0.524089,0.315755 v 2.714845 h -0.611979 v -3.636069 h 0.611979 v 0.403646 q 0.286459,-0.237631 0.592449,-0.371094 0.305989,-0.133464 0.628255,-0.133464 0.589193,0 0.898438,0.354818 0.309245,0.354818 0.309245,1.022136 z"
         style="font-size:6.66667px;-inkscape-font-specification:'sans-serif, Normal';fill:none;stroke:#000000"
         id="path16595" />
      <path
         d="M 99.964368,18.856459 H 97.28533 q 0,0.335287 0.100912,0.585938 0.100911,0.247396 0.276693,0.406901 0.169271,0.15625 0.40039,0.234375 0.234376,0.07813 0.514324,0.07813 0.371094,0 0.745443,-0.146484 0.377604,-0.14974 0.537109,-0.292969 h 0.03255 v 0.667318 q -0.309245,0.130208 -0.63151,0.218099 -0.322266,0.08789 -0.677084,0.08789 -0.904948,0 -1.412761,-0.488282 -0.507813,-0.491536 -0.507813,-1.39323 0,-0.891927 0.485026,-1.416016 0.488282,-0.524089 1.282553,-0.524089 0.735678,0 1.132813,0.429688 0.400391,0.429688 0.400391,1.220704 z m -0.595703,-0.46875 q -0.0033,-0.481771 -0.244141,-0.745443 -0.23763,-0.263672 -0.725912,-0.263672 -0.491537,0 -0.784506,0.289713 -0.289713,0.289714 -0.328776,0.719402 z"
         style="font-size:6.66667px;-inkscape-font-specification:'sans-serif, Normal';fill:none;stroke:#000000"
         id="path16597" />
      <path
         d="m 103.08937,15.545911 -2.33399,6.05469 h -0.56315 l 2.32422,-6.05469 z"
         style="font-size:6.66667px;-inkscape-font-specification:'sans-serif, Normal';fill:none;stroke:#000000"
         id="path16599" />
      <path
         d="m 107.11932,18.749037 q 0,0.442709 -0.12695,0.810547 -0.12696,0.364584 -0.35808,0.61849 -0.21484,0.240886 -0.50781,0.374349 -0.28971,0.130209 -0.61523,0.130209 -0.28321,0 -0.51433,-0.06185 -0.22786,-0.06185 -0.46549,-0.192058 v 1.523439 h -0.61198 v -4.977216 h 0.61198 v 0.380859 q 0.24414,-0.205078 0.54687,-0.341797 0.30599,-0.139974 0.65104,-0.139974 0.65756,0 1.02214,0.498047 0.36784,0.494792 0.36784,1.376955 z m -0.63151,0.01628 q 0,-0.657552 -0.22461,-0.983073 -0.22461,-0.325521 -0.69011,-0.325521 -0.26367,0 -0.53059,0.113932 -0.26693,0.113933 -0.51107,0.29948 v 2.060547 q 0.26041,0.117188 0.44596,0.159506 0.1888,0.04232 0.42643,0.04232 0.51107,0 0.79753,-0.345052 0.28646,-0.345052 0.28646,-1.022136 z"
         style="font-size:6.66667px;-inkscape-font-specification:'sans-serif, Normal';fill:none;stroke:#000000"
         id="path16601" />
      <path
         d="m 111.17206,18.79461 q 0,0.888672 -0.45573,1.402996 -0.45573,0.514323 -1.22071,0.514323 -0.77148,0 -1.22721,-0.514323 -0.45248,-0.514324 -0.45248,-1.402996 0,-0.888672 0.45248,-1.402995 0.45573,-0.517579 1.22721,-0.517579 0.76498,0 1.22071,0.517579 0.45573,0.514323 0.45573,1.402995 z m -0.63151,0 q 0,-0.70638 -0.2767,-1.048177 -0.27669,-0.345053 -0.76823,-0.345053 -0.49804,0 -0.77474,0.345053 -0.27343,0.341797 -0.27343,1.048177 0,0.683594 0.27669,1.038412 0.27669,0.351563 0.77148,0.351563 0.48828,0 0.76498,-0.348308 0.27995,-0.351562 0.27995,-1.041667 z"
         style="font-size:6.66667px;-inkscape-font-specification:'sans-serif, Normal';fill:none;stroke:#000000"
         id="path16603" />
      <path
         d="m 112.73781,20.611017 h -0.61198 v -5.065106 h 0.61198 z"
         style="font-size:6.66667px;-inkscape-font-specification:'sans-serif, Normal';fill:none;stroke:#000000"
         id="path16605" />
      <path
         d="m 114.6063,16.366224 h -0.6901 v -0.634766 h 0.6901 z m -0.0391,4.244793 h -0.61198 v -3.636069 h 0.61198 z"
         style="font-size:6.66667px;-inkscape-font-specification:'sans-serif, Normal';fill:none;stroke:#000000"
         id="path16607" />
      <path
         d="m 118.7274,20.197606 q 0,0.924479 -0.41992,1.357422 -0.41993,0.432943 -1.29232,0.432943 -0.28972,0 -0.56641,-0.04232 -0.27344,-0.03906 -0.54036,-0.113932 v -0.625 h 0.0326 q 0.14974,0.05859 0.47526,0.143229 0.32552,0.08789 0.65104,0.08789 0.3125,0 0.51758,-0.07487 0.20508,-0.07487 0.31901,-0.208334 0.11393,-0.126953 0.16276,-0.305989 0.0488,-0.179037 0.0488,-0.400391 v -0.332032 q -0.27669,0.221355 -0.5306,0.332032 -0.25065,0.107422 -0.64128,0.107422 -0.65104,0 -1.03515,-0.468751 -0.38086,-0.472005 -0.38086,-1.328125 0,-0.46875 0.13021,-0.807292 0.13346,-0.341797 0.36132,-0.589193 0.21159,-0.23112 0.51433,-0.358073 0.30273,-0.130209 0.60221,-0.130209 0.31576,0 0.52734,0.0651 0.21485,0.06185 0.45248,0.192058 l 0.0391,-0.15625 h 0.57292 z m -0.61198,-0.585938 v -1.982423 q -0.24414,-0.110677 -0.45573,-0.15625 -0.20833,-0.04883 -0.41667,-0.04883 -0.50455,0 -0.79427,0.338542 -0.28971,0.338541 -0.28971,0.983073 0,0.611979 0.21484,0.927735 0.21485,0.315755 0.71289,0.315755 0.26693,0 0.53386,-0.100911 0.27018,-0.104167 0.49479,-0.276693 z"
         style="font-size:6.66667px;-inkscape-font-specification:'sans-serif, Normal';fill:none;stroke:#000000"
         id="path16609" />
      <path
         d="m 123.03079,18.79461 q 0,0.888672 -0.45573,1.402996 -0.45573,0.514323 -1.22071,0.514323 -0.77148,0 -1.22721,-0.514323 -0.45248,-0.514324 -0.45248,-1.402996 0,-0.888672 0.45248,-1.402995 0.45573,-0.517579 1.22721,-0.517579 0.76498,0 1.22071,0.517579 0.45573,0.514323 0.45573,1.402995 z m -0.63151,0 q 0,-0.70638 -0.2767,-1.048177 -0.27669,-0.345053 -0.76823,-0.345053 -0.49804,0 -0.77474,0.345053 -0.27343,0.341797 -0.27343,1.048177 0,0.683594 0.27669,1.038412 0.27669,0.351563 0.77148,0.351563 0.48828,0 0.76498,-0.348308 0.27995,-0.351562 0.27995,-1.041667 z"
         style="font-size:6.66667px;-inkscape-font-specification:'sans-serif, Normal';fill:none;stroke:#000000"
         id="path16611" />
      <path
         d="m 127.01842,20.611017 h -0.61198 v -2.070313 q 0,-0.250651 -0.0293,-0.46875 -0.0293,-0.221355 -0.10742,-0.345053 -0.0814,-0.136719 -0.23437,-0.201823 -0.153,-0.06836 -0.39714,-0.06836 -0.25065,0 -0.52409,0.123698 -0.27344,0.123698 -0.52409,0.315755 v 2.714845 h -0.61198 v -3.636069 h 0.61198 v 0.403646 q 0.28646,-0.237631 0.59245,-0.371094 0.30599,-0.133464 0.62826,-0.133464 0.58919,0 0.89843,0.354818 0.30925,0.354818 0.30925,1.022136 z"
         style="font-size:6.66667px;-inkscape-font-specification:'sans-serif, Normal';fill:none;stroke:#000000"
         id="path16613" />
    </g>
    <path
       style="display:inline;fill:none;stroke:#000000;stroke-width:0.5;stroke-linecap:butt;stroke-linejoin:miter;stroke-miterlimit:4;stroke-dasharray:none;stroke-opacity:1"
       d="m 52.837355,120.68882 v 0 l -3.467951,-4.59923 c 0,0 3.467941,4.5992 -1.307508,6.19658 -4.775441,1.59739 -10.663156,-1.96798 -10.537296,0.26754 0.125862,2.23553 13.127841,1.6152 13.127841,1.6152 0,0 -8.618576,-0.36157 -8.809513,1.37066 -0.19095,1.73226 8.939852,-0.0473 8.939852,-0.0473 0,0 -6.448143,3.48035 -5.542677,4.8531 0.905477,1.37275 5.53596,-3.48483 5.53596,-3.48483 0,0 -4.221572,5.17887 -2.35674,6.23706 1.864823,1.05819 3.31386,-6.09551 3.31386,-6.09551 0,0 -0.631199,7.79626 1.193172,7.80521 1.824368,0.009 -0.46297,-7.89286 -0.46297,-7.89286 0,0 3.152341,8.22534 4.572274,7.00083 1.419933,-1.2245 -3.473632,-7.81643 -3.473632,-7.81643 0,0 5.938316,7.46365 7.04145,5.73588 1.103128,-1.72779 -5.214844,-6.183 -5.214844,-6.183 0,0 8.234456,4.28217 8.564687,2.04889 0.330237,-2.23329 -6.688655,-3.27116 -6.499951,-4.54732 0.188703,-1.27617 10.70345,-6.24169 10.70345,-6.24169 z"
       id="path133"
       inkscape:label="path" />    
    <g
       aria-label="path"
       transform="rotate(-12.66965)"
       id="text30351"
       style="font-size:40px;line-height:1.25;display:inline;stroke-width:0.25"
       inkscape:label="path-label">
      <path
         d="m 33.549913,126.12941 q 0,0.4427 -0.126954,0.81054 -0.126953,0.36459 -0.358073,0.61849 -0.214843,0.24089 -0.507812,0.37435 -0.289714,0.13021 -0.615235,0.13021 -0.283203,0 -0.514323,-0.0618 -0.227865,-0.0618 -0.465495,-0.19206 v 1.52344 h -0.61198 v -4.97721 h 0.61198 v 0.38086 q 0.244141,-0.20508 0.546875,-0.3418 0.30599,-0.13997 0.651042,-0.13997 0.657552,0 1.022136,0.49804 0.367839,0.49479 0.367839,1.37696 z m -0.631511,0.0163 q 0,-0.65755 -0.22461,-0.98307 -0.224609,-0.32552 -0.690104,-0.32552 -0.263672,0 -0.530599,0.11393 -0.266927,0.11393 -0.511068,0.29948 v 2.06055 q 0.260417,0.11719 0.445964,0.1595 0.188802,0.0423 0.426432,0.0423 0.511068,0 0.797526,-0.34505 0.286459,-0.34505 0.286459,-1.02214 z"
         style="font-size:6.66667px;-inkscape-font-specification:'sans-serif, Normal';fill:none;stroke:#000000"
         id="path16661" />
      <path
         d="m 37.329211,127.99139 h -0.608724 v -0.38737 q -0.08138,0.0553 -0.221354,0.15625 -0.136719,0.0976 -0.266927,0.15625 -0.152995,0.0749 -0.351563,0.12369 -0.198568,0.0521 -0.465495,0.0521 -0.491537,0 -0.833334,-0.32552 -0.341797,-0.32552 -0.341797,-0.83008 0,-0.41341 0.175782,-0.66732 0.179036,-0.25716 0.507812,-0.40365 0.332032,-0.14648 0.797527,-0.19856 0.465495,-0.0521 0.999349,-0.0781 v -0.0944 q 0,-0.20833 -0.07487,-0.34505 -0.07161,-0.13672 -0.208333,-0.21485 -0.130208,-0.0749 -0.3125,-0.10091 -0.182292,-0.026 -0.38086,-0.026 -0.240885,0 -0.537109,0.0651 -0.296225,0.0618 -0.61198,0.18229 h -0.03255 v -0.62175 q 0.179037,-0.0488 0.517578,-0.10742 0.338542,-0.0586 0.667318,-0.0586 0.384115,0 0.667318,0.0651 0.286459,0.0618 0.494792,0.21484 0.205079,0.14974 0.312501,0.38737 0.107421,0.23763 0.107421,0.5892 z m -0.608724,-0.89519 v -1.01237 q -0.279948,0.0163 -0.660807,0.0488 -0.377605,0.0326 -0.598959,0.0944 -0.263672,0.0749 -0.426433,0.23438 -0.16276,0.15625 -0.16276,0.43294 0,0.3125 0.188802,0.47201 0.188802,0.15625 0.576172,0.15625 0.322266,0 0.589193,-0.1237 0.266927,-0.12695 0.494792,-0.30274 z"
         style="font-size:6.66667px;-inkscape-font-specification:'sans-serif, Normal';fill:none;stroke:#000000"
         id="path16663" />
      <path
         d="m 40.39562,127.95883 q -0.172526,0.0456 -0.377605,0.0749 -0.201823,0.0293 -0.361328,0.0293 -0.556641,0 -0.846355,-0.29948 -0.289713,-0.29948 -0.289713,-0.96029 v -1.93359 h -0.413412 v -0.51432 h 0.413412 v -1.04493 h 0.611979 v 1.04493 h 1.263022 v 0.51432 h -1.263022 v 1.6569 q 0,0.28646 0.01302,0.44922 0.01302,0.15951 0.09115,0.29948 0.07162,0.13021 0.195313,0.19206 0.126953,0.0586 0.384114,0.0586 0.14974,0 0.3125,-0.0423 0.162761,-0.0456 0.234376,-0.0749 h 0.03255 z"
         style="font-size:6.66667px;-inkscape-font-specification:'sans-serif, Normal';fill:none;stroke:#000000"
         id="path16665" />
      <path
         d="m 44.174918,127.99139 h -0.611979 v -2.07032 q 0,-0.25065 -0.0293,-0.46875 -0.0293,-0.22135 -0.107422,-0.34505 -0.08138,-0.13672 -0.234375,-0.20182 -0.152995,-0.0684 -0.397136,-0.0684 -0.250651,0 -0.524089,0.1237 -0.273437,0.12369 -0.524089,0.31575 v 2.71485 h -0.611979 v -5.06511 h 0.611979 v 1.83268 q 0.286459,-0.23763 0.592449,-0.37109 0.305989,-0.13346 0.628255,-0.13346 0.589193,0 0.898438,0.35481 0.309245,0.35482 0.309245,1.02214 z"
         style="font-size:6.66667px;-inkscape-font-specification:'sans-serif, Normal';fill:none;stroke:#000000"
         id="path16667" />
    </g>
    <g
       aria-label="text"
       transform="matrix(1.047657,-0.24114203,0.2841431,0.88910888,0,0)"
       id="text3275"
       style="font-size:22.2583px;line-height:1.25;font-family:'Kunstler Script';-inkscape-font-specification:'Kunstler Script, Normal';display:inline;fill:none;stroke:#000000;stroke-width:0.139115"
       inkscape:label="text-label">
      <path
         d="m 20.946658,145.923 -0.07608,-0.0761 2.988785,-2.44537 1.271593,-0.99988 H 24.14194 l 0.04347,-0.0978 h 1.097699 l 1.836745,-1.92369 0.923806,-0.0217 -1.771535,1.94543 h 1.565037 l -0.03261,0.0978 h -1.641115 l -3.749567,3.99953 q -0.673835,0.71731 -0.815123,0.90207 -0.13042,0.18476 -0.13042,0.34779 0,0.16302 0.13042,0.28258 0.141288,0.10868 0.293444,0.10868 0.891202,0 3.41265,-2.1954 l 0.07608,0.0761 q -2.619263,2.24974 -3.510464,2.24974 -0.282577,0 -0.489074,-0.22824 -0.19563,-0.2391 -0.19563,-0.55428 0,-0.81512 1.086831,-1.96716 l 2.217135,-2.30409 -0.04347,-0.0326 z"
         id="path16634" />
      <path
         d="m 29.706517,145.84692 0.07608,0.0761 q -1.304197,1.15204 -2.38016,1.67372 -1.075963,0.51081 -1.717193,0.51081 -0.891202,0 -0.891202,-0.91294 0,-1.22812 1.67372,-2.31495 1.684588,-1.08683 2.630131,-1.08683 0.173893,0 0.293445,0.0978 0.130419,0.0978 0.130419,0.23911 0,0.53254 -1.054226,1.11943 -1.054226,0.58689 -2.336687,0.72818 -1.108567,1.10857 -1.108567,1.52156 0,0.19563 0.195629,0.36953 0.19563,0.16302 0.456469,0.16302 0.565153,0 1.597642,-0.48907 1.043358,-0.49995 2.434502,-1.69546 z m -3.41265,0 q 0.326049,0 1.152041,-0.28258 0.825992,-0.28257 1.369407,-0.72817 0.554284,-0.4456 0.554284,-0.73905 0,-0.2065 -0.239103,-0.2065 -0.282576,0 -0.630362,0.1739 -0.336917,0.17389 -1.032489,0.71731 -0.695572,0.53254 -1.173778,1.06509 z"
         id="path16636" />
      <path
         d="m 29.782595,145.923 -0.07608,-0.0761 1.249855,-1.03249 q 0.880334,-0.72818 1.282461,-0.95641 0.402128,-0.22824 0.782519,-0.22824 0.271707,0 0.499942,0.21737 0.228234,0.21737 0.228234,0.58689 0,0.22823 -0.07608,0.61949 1.260724,-1.39114 1.945428,-1.39114 0.478206,0 0.478206,0.43473 0,0.24997 -0.19563,0.45647 -0.184761,0.19563 -0.391259,0.19563 -0.282576,0 -0.282576,-0.30431 0,-0.15216 0.130419,-0.27171 0.13042,-0.13042 0.304313,-0.13042 0.06521,0 0.13042,0.0326 0.06521,0.0217 0.08695,0.0217 0.07608,0 0.07608,-0.0869 0,-0.22824 -0.32605,-0.22824 -0.619494,0 -2.032374,1.67372 -1.402012,1.67372 -1.402012,2.11932 0,0.17389 0.152156,0.32605 0.163025,0.14129 0.358655,0.14129 0.717308,0 2.564921,-1.57591 l 0.728177,-0.61949 0.07608,0.0761 q -1.793271,1.55417 -2.44537,1.89108 -0.64123,0.33692 -0.989016,0.33692 -0.26084,0 -0.499943,-0.18476 -0.239102,-0.17389 -0.239102,-0.55428 0,-0.28258 0.130419,-0.68471 -1.141172,0.98902 -1.554168,1.21725 -0.402128,0.21737 -0.739045,0.21737 -0.282576,0 -0.456469,-0.15216 -0.173893,-0.14128 -0.173893,-0.35865 0,-0.29345 0.249971,-0.53255 0.249971,-0.2391 0.499942,-0.2391 0.119552,0 0.206498,0.087 0.09782,0.0761 0.09782,0.18476 0,0.16302 -0.163025,0.30431 -0.152156,0.14129 -0.336918,0.14129 -0.08695,0 -0.173892,-0.0652 -0.07608,-0.0761 -0.08695,-0.0761 -0.03261,0 -0.09782,0.0761 -0.05434,0.0652 -0.05434,0.15215 0,0.14129 0.141288,0.24998 0.152156,0.10868 0.336917,0.10868 0.749914,0 2.228004,-1.63025 1.47809,-1.63024 1.47809,-2.23887 0,-0.413 -0.412995,-0.413 -0.369523,0 -0.815124,0.27171 -0.434732,0.26084 -1.434617,1.07596 z"
         id="path16638" />
      <path
         d="m 36.064479,145.923 -0.07608,-0.0761 2.988785,-2.44537 1.271593,-0.99988 H 39.25976 l 0.04347,-0.0978 h 1.097699 l 1.836744,-1.92369 0.923807,-0.0217 -1.771535,1.94543 h 1.565037 l -0.0326,0.0978 h -1.641115 l -3.749567,3.99953 q -0.673835,0.71731 -0.815123,0.90207 -0.13042,0.18476 -0.13042,0.34779 0,0.16302 0.13042,0.28258 0.141288,0.10868 0.293444,0.10868 0.891201,0 3.41265,-2.1954 l 0.07608,0.0761 q -2.619263,2.24974 -3.510465,2.24974 -0.282576,0 -0.489074,-0.22824 -0.195629,-0.2391 -0.195629,-0.55428 0,-0.81512 1.086831,-1.96716 l 2.217135,-2.30409 -0.04347,-0.0326 z"
         id="path16640" />
    </g>
  </g>
</svg>
