<svg version="1.1" id="svg5" xmlns="http://www.w3.org/2000/svg" xmlns:xlink="http://www.w3.org/1999/xlink" x="0px" y="0px"
	 viewBox="0 0 371.9 355.4" style="enable-background:new 0 0 371.9 355.4;" xml:space="preserve">
<style type="text/css">
	.st0{fill:#9FDDFF;stroke:#006CA7;stroke-width:0.75;stroke-miterlimit:11.34;}
	.st1{fill:#FFA9A9;}
	.st2{enable-background:new    ;}
	.st3{fill:none;stroke:#006CA7;stroke-width:0.75;stroke-miterlimit:11.34;}
	.st4{fill:#9FDDFF;stroke:#000000;stroke-width:0.75;stroke-miterlimit:11.34;}
	.st5{fill:#006CA7;stroke:#000000;stroke-width:0.75;stroke-miterlimit:11.34;}
	.st6{fill:none;stroke:#000000;stroke-width:0.75;stroke-miterlimit:11.34;}
	.st7{fill:#FFFFFF;stroke:#000000;stroke-width:0.75;stroke-miterlimit:11.34;}
	.st8{fill:#FFE3A6;}
</style>
<circle id="path31" class="st0" cx="162.7" cy="196.8" r="138.6"/>
<circle id="path33" class="st1" cx="85.7" cy="224.8" r="46"/>
<g id="text2055">
	<g class="st2">
		<path d="M144.4,84.5l3.9,5.6l3.9-5.6h2.5l-5.1,7.2l5,7h-2.5l-3.8-5.4l-3.8,5.4h-2.5l5-7l-5.1-7.2H144.4z"/>
		<path d="M168.3,98.7V88.6l-4.2,7.7h-1.3l-4.2-7.7v10.1h-2.2V84.5h2.4l4.7,8.7l4.7-8.7h2.4v14.2H168.3z"/>
	</g>
	<g class="st2">
		<path d="M173.7,98.7V84.5h2.2v12.2h7.6v2H173.7z"/>
	</g>
</g>
<g id="text4141">
	<g class="st2">
		<path d="M74.6,218.9v10.7h-1.7v-4.7h-5.4v4.7h-1.7v-10.7h1.7v4.5h5.4v-4.5H74.6z"/>
		<path d="M84.8,220.4h-3.5v9.2h-1.7v-9.2H76v-1.5h8.8V220.4z"/>
		<path d="M95.2,229.6V222l-3.1,5.8h-1l-3.1-5.8v7.6h-1.7v-10.7h1.8l3.5,6.5l3.5-6.5h1.8v10.7H95.2z"/>
	</g>
	<g class="st2">
		<path d="M99.3,229.6v-10.7h1.7v9.2h5.7v1.5H99.3z"/>
	</g>
</g>
<g id="g20946">
	<path id="path35" class="st0" d="M294.1,129.4c-0.6-1.1-1.1-2.3-1.7-3.4s-1.2-2.2-1.8-3.3s-1.2-2.2-1.9-3.3s-1.3-2.2-2-3.2
		s-1.3-2.1-2-3.2s-1.4-2.1-2.1-3.1s-1.5-2.1-2.2-3.1s-1.5-2-2.3-3s-1.6-2-2.4-3s-1.6-1.9-2.4-2.9s-1.7-1.8-2.5-2.8s-1.7-1.8-2.6-2.8
		s-1.8-1.8-2.6-2.7s-1.8-1.8-2.7-2.6s-1.8-1.7-2.8-2.6s-1.9-1.7-2.9-2.5s-1.9-1.6-2.9-2.4s-2-1.6-3-2.3s-2-1.5-3-2.3s-2-1.5-3.1-2.2
		s-2.1-1.4-3.1-2.1s-2.1-1.4-3.2-2s-2.2-1.3-3.2-1.9s-2.2-1.2-3.3-1.8c-0.7-0.4-1.3-0.7-2-1.1c-16.5,19.7-14,49,5.7,65.5
		c6.7,5.7,14.9,9.3,23.6,10.5l0,0c12.4,1.7,25-1.7,34.9-9.3"/>
	<g id="g20941">
		<path id="path18499" class="st3" d="M272.5,47.5c-15.9-2.2-31.7,4-42,16.3c0.7,0.3,1.3,0.7,2,1.1c1.1,0.6,2.2,1.2,3.3,1.8
			s2.2,1.3,3.2,1.9s2.1,1.3,3.2,2s2.1,1.4,3.1,2.1s2.1,1.4,3.1,2.2s2,1.5,3,2.3s2,1.6,3,2.3s2,1.6,2.9,2.4s1.9,1.7,2.9,2.5
			s1.9,1.7,2.8,2.6s1.8,1.8,2.7,2.6s1.8,1.8,2.6,2.7s1.7,1.9,2.5,2.8s1.7,1.9,2.5,2.8s1.6,1.9,2.4,2.9s1.6,2,2.4,3s1.5,2,2.3,3
			s1.5,2,2.2,3.1s1.4,2.1,2.1,3.1s1.4,2.1,2,3.2s1.3,2.2,2,3.2s1.3,2.2,1.9,3.3s1.2,2.2,1.8,3.3s1.1,2.2,1.7,3.4
			c0.1,0.3,0.3,0.6,0.4,1c20.3-15.7,24-44.9,8.3-65.3C295.5,55.5,284.5,49.2,272.5,47.5L272.5,47.5z"/>
	</g>
</g>
<g id="text5465">
	<g class="st2">
		<path d="M259.9,42.4l-2.8-7.9l1.7,0.1l2,6.3l2.4-6.2l1.6,0l-3.2,7.7L259.9,42.4z"/>
	</g>
	<g class="st2">
		<path d="M269.1,42.8c-0.6,0-1.2-0.1-1.6-0.4c-0.5-0.2-0.9-0.5-1.3-0.9c-0.3-0.4-0.6-0.8-0.8-1.3c-0.2-0.5-0.3-1-0.2-1.5
			c0-0.7,0.2-1.4,0.6-2s0.8-1.1,1.5-1.4c0.6-0.4,1.3-0.5,2.2-0.5c0.8,0,1.5,0.2,2.1,0.6s1,0.9,1.3,1.5c0.3,0.6,0.5,1.3,0.4,2
			c0,0.1,0,0.2,0,0.3c0,0.1,0,0.2,0,0.3l-6.3-0.2c0,0.5,0.1,0.9,0.3,1.2c0.2,0.3,0.5,0.6,0.8,0.8c0.3,0.2,0.7,0.3,1.1,0.3
			c0.4,0,0.9-0.1,1.3-0.3c0.4-0.2,0.7-0.5,0.8-0.8l1.4,0.4c-0.2,0.4-0.4,0.7-0.8,1c-0.4,0.3-0.8,0.5-1.2,0.7
			C270.2,42.7,269.7,42.8,269.1,42.8z M266.9,38.1l4.7,0.1c0-0.4-0.1-0.8-0.3-1.2s-0.5-0.6-0.8-0.8c-0.3-0.2-0.7-0.3-1.1-0.3
			c-0.4,0-0.8,0.1-1.1,0.3c-0.3,0.2-0.6,0.4-0.9,0.8C267.1,37.3,266.9,37.7,266.9,38.1z"/>
		<path d="M278,43.1c-0.6,0-1.2-0.1-1.6-0.4c-0.5-0.2-0.9-0.5-1.3-0.9c-0.3-0.4-0.6-0.8-0.8-1.3c-0.2-0.5-0.3-1-0.2-1.6
			c0-0.7,0.2-1.4,0.6-2c0.4-0.6,0.8-1.1,1.5-1.4c0.6-0.3,1.3-0.5,2.2-0.5c0.8,0,1.5,0.2,2.1,0.6c0.6,0.4,1,0.9,1.3,1.5l-1.6,0.5
			c-0.2-0.3-0.4-0.6-0.7-0.8s-0.7-0.3-1.1-0.3c-0.4,0-0.8,0.1-1.2,0.3s-0.7,0.5-0.9,0.9c-0.2,0.4-0.3,0.8-0.3,1.3
			c0,0.5,0.1,0.9,0.3,1.3c0.2,0.4,0.5,0.7,0.8,1c0.3,0.2,0.7,0.4,1.2,0.4c0.3,0,0.5,0,0.8-0.1c0.3-0.1,0.5-0.2,0.7-0.4
			c0.2-0.2,0.3-0.3,0.4-0.5l1.6,0.5c-0.2,0.4-0.4,0.7-0.8,1s-0.7,0.5-1.2,0.7S278.6,43.1,278,43.1z"/>
	</g>
	<g class="st2">
		<path d="M287.3,42.8c-0.1,0.1-0.3,0.1-0.5,0.2c-0.2,0.1-0.5,0.1-0.7,0.2s-0.5,0.1-0.8,0.1c-0.3,0-0.7-0.1-0.9-0.2
			c-0.3-0.1-0.5-0.3-0.7-0.6c-0.2-0.3-0.2-0.6-0.2-1l0.1-4.9l-1,0l0-1.3l1,0l0.1-2.6l1.7,0l-0.1,2.6l1.7,0.1l0,1.3l-1.7-0.1L285,41
			c0,0.3,0.1,0.5,0.2,0.6c0.2,0.1,0.3,0.2,0.6,0.2c0.2,0,0.5,0,0.7-0.1c0.2-0.1,0.4-0.1,0.5-0.2L287.3,42.8z"/>
	</g>
	<g class="st2">
		<path d="M291.8,43.5c-0.6,0-1.2-0.1-1.7-0.4c-0.5-0.2-0.9-0.5-1.2-0.9c-0.3-0.4-0.6-0.8-0.8-1.3c-0.2-0.5-0.3-1-0.2-1.5
			c0-0.5,0.1-1.1,0.3-1.5c0.2-0.5,0.5-0.9,0.9-1.3c0.4-0.4,0.8-0.6,1.3-0.8c0.5-0.2,1.1-0.3,1.7-0.3c0.6,0,1.2,0.1,1.6,0.4
			c0.5,0.2,0.9,0.5,1.2,0.9c0.3,0.4,0.6,0.8,0.8,1.3c0.2,0.5,0.3,1,0.2,1.6c0,0.5-0.1,1.1-0.3,1.5c-0.2,0.5-0.5,0.9-0.9,1.3
			c-0.4,0.4-0.8,0.6-1.3,0.8C293,43.4,292.4,43.5,291.8,43.5z M289.6,39.4c0,0.5,0.1,0.9,0.3,1.3c0.2,0.4,0.5,0.7,0.8,1
			c0.3,0.2,0.7,0.4,1.2,0.4c0.4,0,0.8-0.1,1.2-0.3c0.4-0.2,0.7-0.5,0.9-0.9c0.2-0.4,0.3-0.8,0.4-1.3c0-0.5-0.1-0.9-0.3-1.3
			c-0.2-0.4-0.5-0.7-0.8-1c-0.3-0.2-0.7-0.4-1.2-0.4c-0.4,0-0.8,0.1-1.2,0.3c-0.4,0.2-0.6,0.5-0.9,0.9
			C289.7,38.4,289.6,38.9,289.6,39.4z"/>
	</g>
	<g class="st2">
		<path d="M301.9,37.2c-0.6,0-1.2,0.1-1.7,0.4c-0.5,0.3-0.9,0.6-1.1,1.2l-0.1,4.8l-1.6,0l0.2-7.8l1.5,0l-0.1,1.7
			c0.3-0.5,0.7-1,1.1-1.3c0.4-0.3,0.9-0.5,1.4-0.5c0.1,0,0.2,0,0.2,0c0.1,0,0.1,0,0.2,0L301.9,37.2z"/>
	</g>
</g>
<g id="g56366">
	<rect id="rect22296" x="207.2" y="234.8" class="st4" width="13" height="13"/>
	<rect id="rect22415" x="207.2" y="247.6" class="st4" width="13" height="13"/>
	<rect id="rect22427" x="207.2" y="260.5" class="st4" width="13" height="13"/>
	<rect id="rect22439" x="207.2" y="273.4" class="st4" width="13" height="13"/>
	<rect id="rect22451" x="207.2" y="286.3" class="st4" width="13" height="13"/>
	<rect id="rect22463" x="207.2" y="299.2" class="st4" width="13" height="13"/>
	<rect id="rect22475" x="207.2" y="312" class="st4" width="13" height="13"/>
	<rect id="rect22400" x="220.7" y="234.8" class="st4" width="13" height="13"/>
	<rect id="rect22417" x="220.7" y="247.6" class="st4" width="13" height="13"/>
	<rect id="rect22429" x="220.7" y="260.5" class="st4" width="13" height="13"/>
	<rect id="rect22441" x="220.7" y="273.4" class="st4" width="13" height="13"/>
	<rect id="rect22453" x="220.7" y="286.3" class="st4" width="13" height="13"/>
	<rect id="rect22465" x="220.7" y="299.2" class="st4" width="13" height="13"/>
	<rect id="rect22477" x="220.7" y="312" class="st5" width="13" height="13"/>
	<rect id="rect22402" x="234.1" y="234.8" class="st4" width="13" height="13"/>
	<rect id="rect22419" x="234.1" y="247.6" class="st4" width="13" height="13"/>
	<rect id="rect22431" x="234.1" y="260.5" class="st4" width="13" height="13"/>
	<rect id="rect22443" x="234.1" y="273.4" class="st4" width="13" height="13"/>
	<rect id="rect22455" x="234.1" y="286.3" class="st4" width="13" height="13"/>
	<rect id="rect22467" x="234.1" y="299.2" class="st4" width="13" height="13"/>
	<rect id="rect22479" x="234.1" y="312" class="st5" width="13" height="13"/>
	<rect id="rect22404" x="247.6" y="234.8" class="st4" width="13" height="13"/>
	<rect id="rect22421" x="247.6" y="247.6" class="st4" width="13" height="13"/>
	<rect id="rect22433" x="247.6" y="260.5" class="st4" width="13" height="13"/>
	<rect id="rect22445" x="247.6" y="273.4" class="st6" width="13" height="13"/>
	<rect id="rect22457" x="247.6" y="286.3" class="st4" width="13" height="13"/>
	<rect id="rect22469" x="247.6" y="299.2" class="st5" width="13" height="13"/>
	<rect id="rect22481" x="247.6" y="312" class="st7" width="13" height="13"/>
	<rect id="rect22406" x="261" y="234.8" class="st4" width="13" height="13"/>
	<rect id="rect22423" x="261" y="247.6" class="st4" width="13" height="13"/>
	<rect id="rect22435" x="261" y="260.5" class="st4" width="13" height="13"/>
	<rect id="rect22447" x="261" y="273.4" class="st5" width="13" height="13"/>
	<rect id="rect22459" x="261" y="286.3" class="st5" width="13" height="13"/>
	<rect id="rect22471" x="261" y="299.2" class="st7" width="13" height="13"/>
	<rect id="rect22483" x="261" y="312" class="st7" width="13" height="13"/>
	<rect id="rect22522" x="274.4" y="234.8" class="st4" width="13" height="13"/>
	<rect id="rect22524" x="274.4" y="247.6" class="st4" width="13" height="13"/>
	<rect id="rect22526" x="274.4" y="260.5" class="st5" width="13" height="13"/>
	<rect id="rect22528" x="274.4" y="273.4" class="st7" width="13" height="13"/>
	<rect id="rect22530" x="274.4" y="286.3" class="st7" width="13" height="13"/>
	<rect id="rect22532" x="274.4" y="299.2" class="st7" width="13" height="13"/>
	<rect id="rect22534" x="274.4" y="312" class="st7" width="13" height="13"/>
	<rect id="rect22536" x="287.9" y="234.8" class="st5" width="13" height="13"/>
	<rect id="rect22538" x="287.9" y="247.8" class="st5" width="13" height="13"/>
	<rect id="rect22540" x="287.9" y="260.9" class="st7" width="13" height="13"/>
	<rect id="rect22542" x="287.9" y="273.3" class="st7" width="13" height="13"/>
	<rect id="rect22544" x="287.9" y="286.5" class="st7" width="13" height="13"/>
	<rect id="rect22546" x="287.9" y="299" class="st7" width="13" height="13"/>
	<rect id="rect22548" x="287.9" y="312" class="st7" width="13" height="13"/>
</g>
<g id="text59704">
	<g class="st2">
		<path d="M264.9,334.2c-0.6,0-1.2,0.2-1.7,0.4c-0.5,0.3-0.8,0.7-1.1,1.2v4.8h-1.6v-7.8h1.5v1.7c0.3-0.5,0.6-1,1.1-1.3
			c0.4-0.3,0.9-0.5,1.4-0.5c0.1,0,0.2,0,0.2,0c0.1,0,0.1,0,0.2,0V334.2z"/>
	</g>
	<g class="st2">
		<path d="M265.5,338.3c0-0.5,0.1-0.9,0.4-1.3c0.3-0.4,0.7-0.7,1.2-0.9s1.1-0.3,1.7-0.3c0.3,0,0.7,0,1.1,0.1s0.7,0.1,1,0.2v-0.5
			c0-0.5-0.2-1-0.5-1.3c-0.3-0.3-0.8-0.5-1.4-0.5c-0.4,0-0.9,0.1-1.2,0.2c-0.4,0.2-0.8,0.4-1.2,0.7l-0.6-1.1c0.5-0.3,1-0.6,1.6-0.8
			c0.5-0.2,1.1-0.3,1.7-0.3c1.1,0,1.9,0.3,2.5,0.8s0.9,1.3,0.9,2.3v2.9c0,0.2,0,0.3,0.1,0.4c0.1,0.1,0.2,0.1,0.3,0.1v1.3
			c-0.1,0-0.3,0-0.4,0.1c-0.1,0-0.2,0-0.3,0c-0.4,0-0.6-0.1-0.8-0.3c-0.2-0.2-0.3-0.4-0.3-0.6l0-0.5c-0.3,0.4-0.8,0.8-1.3,1
			c-0.5,0.2-1.1,0.4-1.6,0.4c-0.5,0-1-0.1-1.4-0.3s-0.7-0.5-1-0.9C265.6,339.2,265.5,338.8,265.5,338.3z M270.5,338.8
			c0.1-0.1,0.2-0.3,0.3-0.4c0.1-0.1,0.1-0.2,0.1-0.3v-0.9c-0.3-0.1-0.6-0.2-0.9-0.2c-0.3-0.1-0.6-0.1-0.9-0.1
			c-0.6,0-1.1,0.1-1.5,0.4s-0.6,0.6-0.6,1c0,0.2,0.1,0.4,0.2,0.6c0.1,0.2,0.3,0.4,0.5,0.5s0.5,0.2,0.9,0.2c0.4,0,0.7-0.1,1-0.2
			S270.3,339,270.5,338.8z"/>
	</g>
	<g class="st2">
		<path d="M277.3,340.7c-0.7,0-1.3-0.1-1.9-0.3c-0.6-0.2-1.1-0.5-1.5-1l0.6-1.1c0.4,0.4,0.9,0.7,1.4,0.9s0.9,0.3,1.4,0.3
			c0.5,0,0.8-0.1,1.1-0.3c0.3-0.2,0.4-0.4,0.4-0.8c0-0.2-0.1-0.4-0.2-0.5c-0.2-0.1-0.4-0.2-0.7-0.3c-0.3-0.1-0.6-0.2-1-0.3
			c-0.6-0.2-1-0.3-1.4-0.5c-0.4-0.2-0.7-0.4-0.9-0.7c-0.2-0.3-0.3-0.6-0.3-1c0-0.5,0.1-0.9,0.4-1.3c0.3-0.4,0.6-0.6,1.1-0.8
			c0.5-0.2,1-0.3,1.6-0.3c0.6,0,1.1,0.1,1.6,0.3c0.5,0.2,0.9,0.4,1.3,0.8l-0.7,1.1c-0.4-0.3-0.7-0.6-1.1-0.7
			c-0.4-0.2-0.8-0.2-1.2-0.2c-0.2,0-0.5,0-0.7,0.1c-0.2,0.1-0.4,0.2-0.5,0.3c-0.1,0.1-0.2,0.3-0.2,0.6c0,0.2,0.1,0.4,0.2,0.5
			c0.1,0.1,0.3,0.2,0.5,0.3c0.2,0.1,0.5,0.2,0.9,0.3c0.6,0.2,1.1,0.4,1.6,0.5s0.8,0.4,1,0.7c0.2,0.3,0.4,0.6,0.4,1.1
			c0,0.8-0.3,1.3-0.8,1.8S278.2,340.7,277.3,340.7z"/>
	</g>
	<g class="st2">
		<path d="M286.2,340.2c-0.1,0.1-0.3,0.1-0.5,0.2c-0.2,0.1-0.4,0.2-0.7,0.2c-0.3,0.1-0.5,0.1-0.8,0.1c-0.3,0-0.7-0.1-0.9-0.2
			s-0.5-0.3-0.7-0.6c-0.2-0.3-0.3-0.6-0.3-1v-4.9h-1v-1.3h1v-2.6h1.7v2.6h1.7v1.3h-1.7v4.4c0,0.3,0.1,0.5,0.3,0.6
			c0.2,0.1,0.3,0.2,0.6,0.2c0.2,0,0.5,0,0.7-0.1c0.2-0.1,0.4-0.1,0.5-0.2L286.2,340.2z"/>
	</g>
	<g class="st2">
		<path d="M290.8,340.7c-0.6,0-1.2-0.1-1.7-0.3c-0.5-0.2-0.9-0.5-1.3-0.9s-0.6-0.8-0.8-1.3c-0.2-0.5-0.3-1-0.3-1.5
			c0-0.7,0.2-1.4,0.5-2s0.8-1.1,1.4-1.5c0.6-0.4,1.3-0.6,2.1-0.6s1.5,0.2,2.1,0.6c0.6,0.4,1.1,0.9,1.4,1.5s0.5,1.3,0.5,1.9
			c0,0.1,0,0.2,0,0.3c0,0.1,0,0.2,0,0.3h-6.3c0,0.5,0.2,0.9,0.4,1.2c0.2,0.3,0.5,0.6,0.9,0.8s0.7,0.3,1.1,0.3c0.4,0,0.9-0.1,1.3-0.3
			c0.4-0.2,0.7-0.5,0.8-0.9l1.4,0.4c-0.2,0.4-0.4,0.7-0.8,1c-0.3,0.3-0.8,0.5-1.2,0.7C291.9,340.6,291.4,340.7,290.8,340.7z
			 M288.5,336.1h4.7c0-0.4-0.2-0.8-0.4-1.2c-0.2-0.3-0.5-0.6-0.9-0.8c-0.3-0.2-0.7-0.3-1.1-0.3c-0.4,0-0.8,0.1-1.1,0.3
			s-0.6,0.5-0.8,0.8C288.6,335.3,288.5,335.7,288.5,336.1z"/>
	</g>
	<g class="st2">
		<path d="M300.6,334.2c-0.6,0-1.2,0.2-1.7,0.4c-0.5,0.3-0.8,0.7-1.1,1.2v4.8h-1.7v-7.8h1.5v1.7c0.3-0.5,0.6-1,1.1-1.3
			c0.4-0.3,0.9-0.5,1.4-0.5c0.1,0,0.2,0,0.2,0c0.1,0,0.1,0,0.2,0V334.2z"/>
	</g>
</g>
<circle id="circle60012" class="st8" cx="182.7" cy="183.9" r="46"/>
<g id="text60016">
	<g class="st2">
		<path d="M175.5,180.5c-0.1-0.1-0.2-0.2-0.4-0.4c-0.2-0.1-0.4-0.2-0.7-0.4c-0.3-0.1-0.5-0.2-0.8-0.3c-0.3-0.1-0.6-0.1-0.9-0.1
			c-0.7,0-1.2,0.1-1.6,0.4c-0.3,0.3-0.5,0.6-0.5,1.1c0,0.3,0.1,0.6,0.3,0.8c0.2,0.2,0.5,0.4,0.9,0.5c0.4,0.1,0.9,0.3,1.5,0.4
			c0.7,0.2,1.3,0.4,1.9,0.6c0.5,0.2,0.9,0.5,1.2,0.9c0.3,0.4,0.4,0.9,0.4,1.5c0,0.5-0.1,1-0.3,1.4c-0.2,0.4-0.5,0.7-0.8,1
			c-0.4,0.2-0.8,0.4-1.2,0.5c-0.5,0.1-1,0.2-1.5,0.2c-0.5,0-1.1-0.1-1.6-0.2c-0.5-0.1-1-0.3-1.5-0.5c-0.5-0.2-0.9-0.5-1.3-0.8
			l0.8-1.4c0.1,0.1,0.3,0.3,0.6,0.4c0.2,0.2,0.5,0.3,0.9,0.4c0.3,0.1,0.7,0.3,1.1,0.4c0.4,0.1,0.8,0.1,1.2,0.1
			c0.7,0,1.2-0.1,1.5-0.3c0.4-0.2,0.5-0.6,0.5-1c0-0.4-0.1-0.6-0.3-0.9c-0.2-0.2-0.6-0.4-1-0.5s-1-0.3-1.6-0.4
			c-0.7-0.2-1.3-0.4-1.8-0.6s-0.8-0.5-1.1-0.9c-0.2-0.4-0.4-0.8-0.4-1.4c0-0.7,0.2-1.3,0.5-1.8c0.3-0.5,0.8-0.8,1.4-1.1
			s1.2-0.4,2-0.4c0.5,0,0.9,0.1,1.4,0.2c0.4,0.1,0.8,0.2,1.2,0.4c0.4,0.2,0.7,0.4,1,0.6L175.5,180.5z"/>
	</g>
	<g class="st2">
		<path d="M178.8,177.9l3.2,8.6l3.2-8.6h1.8l-4.2,10.6h-1.6l-4.2-10.6H178.8z"/>
	</g>
	<g class="st2">
		<path d="M192.2,188.7c-0.7,0-1.4-0.1-2-0.4c-0.6-0.3-1.1-0.7-1.6-1.2c-0.5-0.5-0.8-1.1-1.1-1.7s-0.4-1.3-0.4-2.1
			c0-0.7,0.1-1.4,0.4-2.1s0.6-1.2,1.1-1.7c0.5-0.5,1-0.9,1.6-1.2c0.6-0.3,1.3-0.4,2-0.4c1,0,1.9,0.2,2.6,0.6c0.7,0.4,1.2,1,1.6,1.7
			l-1.3,0.9c-0.3-0.6-0.7-1-1.2-1.3c-0.5-0.3-1.1-0.4-1.7-0.4c-0.5,0-1,0.1-1.4,0.3c-0.4,0.2-0.8,0.5-1.1,0.9s-0.5,0.8-0.7,1.2
			c-0.2,0.5-0.2,1-0.2,1.5c0,0.5,0.1,1,0.3,1.5c0.2,0.5,0.4,0.9,0.7,1.2c0.3,0.4,0.7,0.6,1.1,0.8c0.4,0.2,0.9,0.3,1.4,0.3
			c0.6,0,1.1-0.1,1.7-0.4s1-0.7,1.5-1.3v1.7C194.6,188.1,193.5,188.7,192.2,188.7z M195.3,184.5h-2.2v-1.2h3.6v5.4h-1.4V184.5z"/>
	</g>
</g>
</svg>
